<svg width="100" height="100" viewBox="0 0 100 100" fill="none" xmlns="http://www.w3.org/2000/svg"><path d="M40.634 26.294l18.343 15.723c2.233 2.038 2.524 5.532.486 7.764l-21.546 25.04a5.295 5.295 0 0 1-3.631 1.885c-.215.037-.46.057-.737.057l-16.402-.194c-2.038 0-4.077-1.747-4.368-3.785l-2.507-15.51c-.272-1.774-.23-3.819 1.051-5.357l21.547-25.04c1.94-2.33 5.435-2.524 7.764-.583z" fill="#1AA0E8"/><path d="M59.366 74.434L41.119 58.71c-2.329-1.942-2.62-5.436-.582-7.765l21.546-25.04C63.338 24.4 65 24 67.06 24.066l15.89.093c2.038 0 4.076 1.747 4.368 3.785l2.62 16.208c.035.247.052.473.052.676a5.688 5.688 0 0 1-1.313 3.983L67.13 73.85c-1.94 2.33-5.435 2.524-7.764.583z" fill="#0B63CE"/><path d="M52.787 36.71l6.19 5.307c2.233 2.038 2.524 5.532.486 7.764L47.24 63.985l-6.122-5.275c-2.329-1.94-2.62-5.435-.582-7.764l12.25-14.236z" fill="#134194"/></svg>