<svg fill="none" height="100" viewBox="0 0 100 100" width="100" xmlns="http://www.w3.org/2000/svg"><g fill="#09101d"><path d="m51.268 35.409-10.634-9.115c-2.33-1.941-5.823-1.747-7.764.582l-21.547 25.04c-1.282 1.54-1.323 3.584-1.051 5.357l2.507 15.51c.291 2.039 2.33 3.786 4.368 3.786l16.402.194c.276 0 .522-.02.737-.057a5.295 5.295 0 0 0 3.63-1.884l8.02-9.32-6.11-5.266c-3.182-2.664-3.565-7.433-.8-10.6z"/><path d="m59.366 74.434-18.247-15.724c-2.329-1.942-2.62-5.436-.582-7.765l21.546-25.04c1.255-1.505 2.917-1.905 4.977-1.839l15.89.093c2.038 0 4.076 1.747 4.368 3.785l2.62 16.208c.035.247.052.473.052.676a5.688 5.688 0 0 1 -1.314 3.983l-21.546 25.039c-1.94 2.33-5.435 2.524-7.764.583z"/></g></svg>