<svg width="600" height="200" viewBox="0 0 600 200" fill="none" xmlns="http://www.w3.org/2000/svg"><path d="M105.434 38.264h-9.542V18.536c0-.12-.08-.2-.201-.2H94.2c-.12 0-.201.08-.201.2v21.177c0 .12.08.201.201.201h11.233c.12 0 .201-.08.201-.201v-1.288c0-.08-.08-.161-.201-.161zm14.131-14.172h-3.382v-3.14c0-2.214.725-3.301 2.215-3.301.604 0 1.208.16 1.771.402.04.04.12.04.161 0l.121-.12.403-1.168c.04-.08 0-.201-.121-.242-.765-.322-1.61-.523-2.335-.523-2.577 0-4.026 1.731-4.026 4.831v3.261l-1.933.121c-.12 0-.201.08-.201.201v1.087c0 .121.08.202.201.202h1.933v14.01c0 .12.08.201.201.201h1.41c.12 0 .2-.08.2-.201v-14.01h3.382c.121 0 .202-.08.202-.202v-1.248c0-.08-.08-.16-.202-.16zm7.328-.402c-3.342 0-6.925 2.939-6.925 8.333 0 4.872 3.02 8.294 7.327 8.294 2.295 0 3.704-.765 4.992-1.53.081-.04.121-.161.081-.282l-.604-1.087c-.04-.04-.08-.08-.12-.08-.04 0-.122 0-.162.04-1.288.926-2.576 1.328-4.026 1.328-3.26 0-5.475-2.536-5.596-6.28h10.91c.081 0 .162-.08.202-.161.08-.403.08-.846.08-1.208-.08-4.63-2.335-7.367-6.16-7.367zm-5.073 7.126c.362-3.261 2.416-5.516 5.073-5.516 2.778 0 4.308 1.973 4.348 5.516h-9.421zm21.458-6.764c-.483-.242-.966-.322-1.61-.322-1.61 0-3.14 1.006-4.308 2.899l-.12-2.335c0-.121-.081-.202-.202-.202h-1.208c-.12 0-.201.08-.201.202v15.46c0 .12.08.2.201.2h1.41c.12 0 .2-.08.2-.2V29.285c.967-2.416 2.457-3.825 4.027-3.825.563 0 .805.08 1.328.242h.161c.04-.04.08-.08.08-.121l.323-1.288c.04-.121 0-.202-.08-.242zm12.722.04h-1.248c-.12 0-.201.08-.201.202l-.08 1.167c-1.33-1.047-2.618-1.731-4.47-1.731-4.106 0-7.045 3.502-7.045 8.334 0 5.193 2.456 8.293 6.603 8.293 1.69 0 3.381-.765 4.951-2.214l.121 1.65c0 .121.08.202.202.202h1.207c.121 0 .202-.08.202-.201v-15.5c-.04-.121-.121-.202-.242-.202zm-1.61 3.14v8.978c-1.65 1.691-3.1 2.416-4.63 2.416-3.06 0-4.912-2.496-4.912-6.643 0-3.744 2.295-6.683 5.234-6.683 1.53.04 2.818.604 4.308 1.933zm16.99-3.059c-.04-.04-.081-.08-.162-.08h-1.449c-.08 0-.161.04-.201.12l-3.302 9.703c-.16.523-.362 1.087-.523 1.65-.241.805-.523 1.61-.765 2.335-.322-.805-.644-1.69-.966-2.536-.201-.524-.403-1.007-.564-1.49l-3.704-9.702a.221.221 0 0 0-.2-.121h-1.53c-.081 0-.122.04-.162.08-.04.04-.04.121 0 .202l6.321 15.66-.403 1.29c-.604 1.81-1.73 3.944-3.784 3.944-.403 0-.886-.12-1.208-.241h-.16l-.122.12-.322 1.249c-.04.08.04.201.121.241.443.202 1.087.322 1.65.322 2.376 0 4.228-1.811 5.396-5.233l6.079-17.393c.04 0 0-.08-.04-.12zm-61.92-3.583a.447.447 0 0 0 .443-.443v-1.45a.447.447 0 0 0-.443-.442h-1.45a.447.447 0 0 0-.442.442v1.45c0 .241.201.443.443.443h1.45zm-1.45 3.502h1.41c.12 0 .201.08.201.202v15.46c0 .12-.08.2-.201.2h-1.41c-.12 0-.2-.08-.2-.2v-15.46c0-.121.08-.202.2-.202zM93.003 89.346c-.048-3.228.48-6.44 1.563-9.483a20.818 20.818 0 0 1 4.274-7.11 18.22 18.22 0 0 1 6.368-4.408 20.143 20.143 0 0 1 7.85-1.543 15.136 15.136 0 0 1 7.134 1.653 19.527 19.527 0 0 1 5.204 3.835l-4.312 4.76a14.002 14.002 0 0 0-3.545-2.608 9.646 9.646 0 0 0-4.422-.962c-1.709-.02-3.4.354-4.938 1.094a11.3 11.3 0 0 0-3.848 3.107 14.58 14.58 0 0 0-2.52 4.922 22.21 22.21 0 0 0-.9 6.545c0 4.936 1.074 8.805 3.221 11.606a10.378 10.378 0 0 0 3.84 3.172 10.414 10.414 0 0 0 4.88 1.022 10.85 10.85 0 0 0 5.078-1.123 14.447 14.447 0 0 0 4.01-3.174l4.31 4.694a18.714 18.714 0 0 1-6.035 4.665 17.134 17.134 0 0 1-7.496 1.616c-2.659.02-5.295-.48-7.761-1.47a17.373 17.373 0 0 1-6.236-4.297 20.408 20.408 0 0 1-4.179-7.007 27.572 27.572 0 0 1-1.54-9.506zm36.351 5.289a19.381 19.381 0 0 1 1.26-7.206 15.816 15.816 0 0 1 3.42-5.355 14.847 14.847 0 0 1 4.938-3.335 15.072 15.072 0 0 1 5.837-1.16 15.352 15.352 0 0 1 5.897 1.16 14.485 14.485 0 0 1 4.938 3.335 16.513 16.513 0 0 1 3.42 5.355 20.774 20.774 0 0 1 0 14.412 16.512 16.512 0 0 1-3.42 5.355 14.102 14.102 0 0 1-4.938 3.306 15.76 15.76 0 0 1-5.897 1.124 15.48 15.48 0 0 1-5.837-1.124 14.442 14.442 0 0 1-4.938-3.306 15.816 15.816 0 0 1-3.42-5.355 19.393 19.393 0 0 1-1.26-7.206zm7.827 0c0 3.261.673 5.874 2.02 7.838a6.434 6.434 0 0 0 2.416 2.204 6.458 6.458 0 0 0 3.192.734 6.525 6.525 0 0 0 3.204-.735 6.5 6.5 0 0 0 2.435-2.203c1.37-1.959 2.056-4.572 2.056-7.838s-.685-5.899-2.056-7.897a6.507 6.507 0 0 0-2.435-2.201 6.533 6.533 0 0 0-3.204-.737 6.467 6.467 0 0 0-3.191.735 6.44 6.44 0 0 0-2.417 2.203c-1.352 1.96-2.025 4.592-2.02 7.897zm29.386-16.263h6.302l.53 4.407h.266a22.64 22.64 0 0 1 4.48-3.673 10.042 10.042 0 0 1 5.47-1.52 9.754 9.754 0 0 1 5.734 1.52 9.451 9.451 0 0 1 3.31 4.29 26.178 26.178 0 0 1 4.842-4.165 10.063 10.063 0 0 1 5.638-1.653c3.44 0 5.982 1.114 7.628 3.343 1.646 2.228 2.464 5.411 2.455 9.55v20.361h-7.717v-19.37c0-2.689-.41-4.584-1.231-5.686a4.346 4.346 0 0 0-3.744-1.653c-2.034 0-4.312 1.345-6.833 4.033v22.676h-7.628v-19.37c0-2.689-.41-4.584-1.23-5.686a4.421 4.421 0 0 0-3.811-1.653c-2.034 0-4.312 1.345-6.833 4.033v22.676h-7.628v-32.46zm54.592 0h6.302l.53 4.407h.266a22.832 22.832 0 0 1 4.473-3.673 10.086 10.086 0 0 1 5.477-1.52 9.754 9.754 0 0 1 5.734 1.52 9.45 9.45 0 0 1 3.258 4.29 26.178 26.178 0 0 1 4.842-4.165 10.063 10.063 0 0 1 5.638-1.653c3.44 0 5.983 1.114 7.629 3.343 1.646 2.228 2.464 5.411 2.454 9.55v20.361h-7.665v-19.37c0-2.689-.41-4.584-1.231-5.686a4.347 4.347 0 0 0-3.744-1.653c-2.034 0-4.312 1.345-6.833 4.033v22.676h-7.628v-19.37c0-2.689-.41-4.584-1.23-5.686a4.421 4.421 0 0 0-3.811-1.653c-2.034 0-4.312 1.345-6.833 4.033v22.676h-7.628v-32.46zm52.47 16.263a19.203 19.203 0 0 1 1.26-7.162 16.365 16.365 0 0 1 3.346-5.355c1.363-1.432 3-2.579 4.813-3.372a13.77 13.77 0 0 1 5.572-1.19c2.004-.04 3.993.342 5.837 1.124a11.369 11.369 0 0 1 4.209 3.173 13.94 13.94 0 0 1 2.557 4.885 21.33 21.33 0 0 1 .863 6.215 15.27 15.27 0 0 1-.332 3.57h-20.696c.354 2.938 1.38 5.208 3.08 6.81a9.21 9.21 0 0 0 6.538 2.38 12.06 12.06 0 0 0 3.943-.625 17.615 17.615 0 0 0 3.62-1.756l2.586 4.76a23.46 23.46 0 0 1-5.159 2.512c-1.92.665-3.938 1-5.97.992a17.092 17.092 0 0 1-6.302-1.153 14.982 14.982 0 0 1-5.107-3.342 15.215 15.215 0 0 1-3.42-5.319 19.62 19.62 0 0 1-1.238-7.147zm21.823-2.938c0-2.6-.543-4.628-1.629-6.083-1.085-1.454-2.754-2.189-5.004-2.203a7.193 7.193 0 0 0-5.108 2.086c-1.474 1.39-2.38 3.45-2.72 6.178l14.461.022zm12.604-13.325h6.302l.53 5.751h.266a13.624 13.624 0 0 1 4.179-4.855 9.194 9.194 0 0 1 8.756-1.028l-1.327 6.61a13.96 13.96 0 0 0-1.592-.396 10.256 10.256 0 0 0-1.791-.132 7.127 7.127 0 0 0-4.046 1.469c-1.415.98-2.632 2.708-3.649 5.186v19.833h-7.628V78.372zm20.63 16.263a18.398 18.398 0 0 1 1.326-7.206 15.841 15.841 0 0 1 3.582-5.355 15.484 15.484 0 0 1 5.204-3.335 16.869 16.869 0 0 1 6.206-1.16c1.902-.049 3.791.32 5.535 1.08a14.744 14.744 0 0 1 4.017 2.673l-3.685 4.826a12.4 12.4 0 0 0-2.654-1.748 6.608 6.608 0 0 0-2.852-.632 7.983 7.983 0 0 0-6.435 2.938c-1.636 1.96-2.454 4.591-2.454 7.897 0 3.305.806 5.918 2.418 7.838a7.746 7.746 0 0 0 6.272 2.938 8.257 8.257 0 0 0 3.685-.823 14.704 14.704 0 0 0 3.022-1.954l3.184 4.826a16.635 16.635 0 0 1-5.108 3.108 15.604 15.604 0 0 1-5.572 1.057 16.957 16.957 0 0 1-6.206-1.123 13.963 13.963 0 0 1-5.004-3.306 15.169 15.169 0 0 1-3.317-5.355 20.359 20.359 0 0 1-1.164-7.184zm27.728 0a19.203 19.203 0 0 1 1.26-7.162 16.24 16.24 0 0 1 3.346-5.355 14.779 14.779 0 0 1 4.842-3.35 13.748 13.748 0 0 1 5.572-1.19 14.278 14.278 0 0 1 5.838 1.124 11.369 11.369 0 0 1 4.208 3.174 13.94 13.94 0 0 1 2.528 4.863 21.56 21.56 0 0 1 .863 6.214 15.27 15.27 0 0 1-.332 3.57h-20.696c.354 2.938 1.38 5.208 3.08 6.81a9.21 9.21 0 0 0 6.538 2.38c1.34.012 2.673-.2 3.943-.625a17.61 17.61 0 0 0 3.62-1.756l2.586 4.76a23.617 23.617 0 0 1-5.159 2.513c-1.92.663-3.938.998-5.97.991a17.092 17.092 0 0 1-6.302-1.153 14.905 14.905 0 0 1-5.107-3.342 15.214 15.214 0 0 1-3.42-5.319 19.62 19.62 0 0 1-1.238-7.147zm21.823-2.938c0-2.6-.543-4.628-1.629-6.082-1.085-1.455-2.754-2.19-5.004-2.204a7.178 7.178 0 0 0-5.108 2.086c-1.474 1.388-2.373 3.445-2.72 6.178l14.461.022zM47.786 80.953l-6.593-5.65c-1.444-1.204-3.61-1.084-4.814.36L23.021 91.188c-.795.954-.821 2.222-.653 3.321l1.555 9.617c.18 1.263 1.444 2.347 2.708 2.347l10.17.12c.17 0 .323-.012.456-.035a3.283 3.283 0 0 0 2.251-1.168l4.973-5.78-3.79-3.264c-1.972-1.651-2.209-4.608-.495-6.572l7.59-8.82z" fill="#fff"/><path d="M52.807 105.149L41.494 95.4a3.367 3.367 0 0 1-.361-4.813l13.359-15.525c.778-.934 1.808-1.182 3.086-1.141l9.851.057c1.264 0 2.527 1.084 2.708 2.347l1.625 10.05c.022.152.032.292.032.418a3.527 3.527 0 0 1-.815 2.47l-13.358 15.525c-1.204 1.444-3.37 1.564-4.814.36z" fill="#fff"/></svg>