<svg width="54" height="54" viewBox="0 0 54 54" fill="none" xmlns="http://www.w3.org/2000/svg">
<path fill-rule="evenodd" clip-rule="evenodd" d="M0 4C0 1.79086 1.79086 0 4 0H50C52.2091 0 54 1.79086 54 4V50C54 52.2091 52.2091 54 50 54H4C1.79086 54 0 52.2091 0 50V4ZM8 9C8 8.44772 8.44771 8 9 8H15C15.5523 8 16 8.44772 16 9V15C16 15.5523 15.5523 16 15 16H9C8.44771 16 8 15.5523 8 15V9ZM19 8C18.4477 8 18 8.44772 18 9V15C18 15.5523 18.4477 16 19 16H25C25.5523 16 26 15.5523 26 15V9C26 8.44772 25.5523 8 25 8H19ZM28 9C28 8.44772 28.4477 8 29 8H35C35.5523 8 36 8.44772 36 9V15C36 15.5523 35.5523 16 35 16H29C28.4477 16 28 15.5523 28 15V9ZM9 18C8.44771 18 8 18.4477 8 19V25C8 25.5523 8.44771 26 9 26H15C15.5523 26 16 25.5523 16 25V19C16 18.4477 15.5523 18 15 18H9ZM18 19C18 18.4477 18.4477 18 19 18H25C25.5523 18 26 18.4477 26 19V25C26 25.5523 25.5523 26 25 26H19C18.4477 26 18 25.5523 18 25V19ZM39 18C38.4477 18 38 18.4477 38 19V25C38 25.5523 38.4477 26 39 26H45C45.5523 26 46 25.5523 46 25V19C46 18.4477 45.5523 18 45 18H39ZM8 29C8 28.4477 8.44771 28 9 28H15C15.5523 28 16 28.4477 16 29V35C16 35.5523 15.5523 36 15 36H9C8.44771 36 8 35.5523 8 35V29ZM29 28C28.4477 28 28 28.4477 28 29V35C28 35.5523 28.4477 36 29 36H35C35.5523 36 36 35.5523 36 35V29C36 28.4477 35.5523 28 35 28H29ZM38 29C38 28.4477 38.4477 28 39 28H45C45.5523 28 46 28.4477 46 29V35C46 35.5523 45.5523 36 45 36H39C38.4477 36 38 35.5523 38 35V29ZM19 38C18.4477 38 18 38.4477 18 39V45C18 45.5523 18.4477 46 19 46H25C25.5523 46 26 45.5523 26 45V39C26 38.4477 25.5523 38 25 38H19ZM28 39C28 38.4477 28.4477 38 29 38H35C35.5523 38 36 38.4477 36 39V45C36 45.5523 35.5523 46 35 46H29C28.4477 46 28 45.5523 28 45V39ZM39 38C38.4477 38 38 38.4477 38 39V45C38 45.5523 38.4477 46 39 46H45C45.5523 46 46 45.5523 46 45V39C46 38.4477 45.5523 38 45 38H39Z" fill="#FEFEFE"/>
</svg>
