<svg width="600" height="200" viewBox="0 0 600 200" fill="none" xmlns="http://www.w3.org/2000/svg"><path d="M105.434 38.264h-9.542V18.536c0-.12-.08-.2-.201-.2H94.2c-.12 0-.201.08-.201.2v21.177c0 .12.08.201.201.201h11.233c.12 0 .201-.08.201-.201v-1.288c0-.08-.08-.161-.201-.161zm14.131-14.172h-3.382v-3.14c0-2.214.725-3.301 2.215-3.301.604 0 1.208.16 1.771.402.04.04.12.04.161 0l.121-.12.403-1.168c.04-.08 0-.201-.121-.242-.765-.322-1.61-.523-2.335-.523-2.577 0-4.026 1.731-4.026 4.831v3.261l-1.933.121c-.12 0-.201.08-.201.201v1.087c0 .121.08.202.201.202h1.933v14.01c0 .12.08.201.201.201h1.41c.12 0 .2-.08.2-.201v-14.01h3.382c.121 0 .202-.08.202-.202v-1.248c0-.08-.08-.16-.202-.16zm7.328-.402c-3.342 0-6.925 2.939-6.925 8.333 0 4.872 3.02 8.294 7.327 8.294 2.295 0 3.704-.765 4.992-1.53.081-.04.121-.161.081-.282l-.604-1.087c-.04-.04-.08-.08-.12-.08-.04 0-.122 0-.162.04-1.288.926-2.576 1.328-4.026 1.328-3.26 0-5.475-2.536-5.596-6.28h10.91c.081 0 .162-.08.202-.161.08-.403.08-.846.08-1.208-.08-4.63-2.335-7.367-6.16-7.367zm-5.073 7.126c.362-3.261 2.416-5.516 5.073-5.516 2.778 0 4.308 1.973 4.348 5.516h-9.421zm21.458-6.764c-.483-.242-.966-.322-1.61-.322-1.61 0-3.14 1.006-4.308 2.899l-.12-2.335c0-.121-.081-.202-.202-.202h-1.208c-.12 0-.201.08-.201.202v15.46c0 .12.08.2.201.2h1.41c.12 0 .2-.08.2-.2V29.285c.967-2.416 2.457-3.825 4.027-3.825.563 0 .805.08 1.328.242h.161c.04-.04.08-.08.08-.121l.323-1.288c.04-.121 0-.202-.08-.242zm12.722.04h-1.248c-.12 0-.201.08-.201.202l-.08 1.167c-1.33-1.047-2.618-1.731-4.47-1.731-4.106 0-7.045 3.502-7.045 8.334 0 5.193 2.456 8.293 6.603 8.293 1.69 0 3.381-.765 4.951-2.214l.121 1.65c0 .121.08.202.202.202h1.207c.121 0 .202-.08.202-.201v-15.5c-.04-.121-.121-.202-.242-.202zm-1.61 3.14v8.978c-1.65 1.691-3.1 2.416-4.63 2.416-3.06 0-4.912-2.496-4.912-6.643 0-3.744 2.295-6.683 5.234-6.683 1.53.04 2.818.604 4.308 1.933zm16.99-3.059c-.04-.04-.081-.08-.162-.08h-1.449c-.08 0-.161.04-.201.12l-3.302 9.703c-.16.523-.362 1.087-.523 1.65-.241.805-.523 1.61-.765 2.335-.322-.805-.644-1.69-.966-2.536-.201-.524-.403-1.007-.564-1.49l-3.704-9.702a.221.221 0 0 0-.2-.121h-1.53c-.081 0-.122.04-.162.08-.04.04-.04.121 0 .202l6.321 15.66-.403 1.29c-.604 1.81-1.73 3.944-3.784 3.944-.403 0-.886-.12-1.208-.241h-.16l-.122.12-.322 1.249c-.04.08.04.201.121.241.443.202 1.087.322 1.65.322 2.376 0 4.228-1.811 5.396-5.233l6.079-17.393c.04 0 0-.08-.04-.12zm-61.92-3.583a.447.447 0 0 0 .443-.443v-1.45a.447.447 0 0 0-.443-.442h-1.45a.447.447 0 0 0-.442.442v1.45c0 .241.201.443.443.443h1.45zm-1.45 3.502h1.41c.12 0 .201.08.201.202v15.46c0 .12-.08.2-.201.2h-1.41c-.12 0-.2-.08-.2-.2v-15.46c0-.121.08-.202.2-.202zM94 67.596h11.74c6.71 0 11.942 1.798 15.7 5.395 3.756 3.597 5.635 8.992 5.635 16.185a28.842 28.842 0 0 1-1.439 9.525 18.233 18.233 0 0 1-4.16 6.89 17.392 17.392 0 0 1-6.574 4.167 25.6 25.6 0 0 1-8.759 1.398H94v-43.56zm11.181 37.3c4.473 0 7.907-1.279 10.302-3.834 2.396-2.556 3.59-6.518 3.586-11.886 0-5.328-1.208-9.214-3.623-11.656s-5.837-3.676-10.265-3.7h-3.421v31.038l3.421.037zm32.628-32.171a4.942 4.942 0 0 1-3.422-1.2 3.986 3.986 0 0 1-1.342-3.13 4.096 4.096 0 0 1 1.342-3.167A5.376 5.376 0 0 1 137.81 64c1.25 0 2.46.434 3.421 1.228a4.096 4.096 0 0 1 1.342 3.167 3.986 3.986 0 0 1-1.342 3.13 4.942 4.942 0 0 1-3.421 1.2zm-3.891 5.728h7.752v32.703h-7.752V78.453zm14.022 38.631a6.628 6.628 0 0 1 1.207-3.833 11.257 11.257 0 0 1 3.489-3.16v-.267a6.684 6.684 0 0 1-2.11-2.131 6.145 6.145 0 0 1-.842-3.33 5.928 5.928 0 0 1 1.11-3.501 10.582 10.582 0 0 1 2.513-2.56v-.267a11.73 11.73 0 0 1-2.982-3.5 10 10 0 0 1-1.312-5.181 11.033 11.033 0 0 1 .976-4.788 11.108 11.108 0 0 1 2.952-3.908 12.176 12.176 0 0 1 4.122-2.265 15.908 15.908 0 0 1 4.965-.74c.868-.003 1.734.073 2.587.23.757.14 1.504.33 2.236.57h11.808v5.661h-6.038a7.713 7.713 0 0 1 1.341 2.361 8.972 8.972 0 0 1 .537 3.167 11.136 11.136 0 0 1-.969 4.796 9.992 9.992 0 0 1-2.654 3.464 11.685 11.685 0 0 1-3.958 2.131c-1.583.5-3.236.75-4.897.74a12.829 12.829 0 0 1-2.237-.2 11.07 11.07 0 0 1-2.28-.666c-.447.393-.84.84-1.171 1.332a3.245 3.245 0 0 0-.44 1.799 2.52 2.52 0 0 0 1.178 2.22c.785.533 2.182.8 4.19.8h5.836c3.976 0 6.985.63 9.027 1.894 2.043 1.263 3.059 3.318 3.049 6.165a8.833 8.833 0 0 1-1.237 4.529 11.232 11.232 0 0 1-3.526 3.663c-1.7 1.1-3.568 1.92-5.531 2.428a27.34 27.34 0 0 1-7.283.903 26.354 26.354 0 0 1-5.464-.533 14.386 14.386 0 0 1-4.331-1.599 8.406 8.406 0 0 1-2.848-2.664 6.69 6.69 0 0 1-1.014-3.76zm6.44-1.132c.003.724.216 1.431.612 2.039.397.607.96 1.089 1.624 1.388a12.99 12.99 0 0 0 6.202 1.236 11.89 11.89 0 0 0 6.478-1.57c1.63-1.045 2.445-2.279 2.445-3.7a2.538 2.538 0 0 0-.322-1.538 2.565 2.565 0 0 0-1.169-1.06 11.103 11.103 0 0 0-4.33-.665h-4.473a18.363 18.363 0 0 1-4.473-.467c-1.73 1.293-2.594 2.739-2.594 4.337zm7.648-19.982a5.475 5.475 0 0 0 4.025-1.702c1.119-1.135 1.678-2.765 1.678-4.892a6.572 6.572 0 0 0-1.64-4.766 5.412 5.412 0 0 0-1.85-1.276 5.447 5.447 0 0 0-2.213-.419 5.604 5.604 0 0 0-4.092 1.665c-1.118 1.11-1.678 2.71-1.678 4.796 0 2.087.56 3.718 1.678 4.892.526.55 1.161.985 1.866 1.278a5.55 5.55 0 0 0 2.226.424zm25.56-23.245a4.942 4.942 0 0 1-3.429-1.2 3.986 3.986 0 0 1-1.342-3.13 4.096 4.096 0 0 1 1.342-3.167A5.376 5.376 0 0 1 187.581 64c1.25 0 2.46.434 3.421 1.228a4.096 4.096 0 0 1 1.342 3.167 3.986 3.986 0 0 1-1.342 3.13 4.942 4.942 0 0 1-3.414 1.2zm-3.89 5.728h7.714v32.703h-7.715V78.453zm17.375 6.061h-4.696v-5.728l5.099-.333.939-8.926h6.44v8.926h8.387v6.061h-8.386V100.1c0 3.819 1.543 5.728 4.629 5.728a8.25 8.25 0 0 0 1.781-.2 8.272 8.272 0 0 0 1.64-.533l1.342 5.662c-.998.338-2.016.615-3.049.829-1.203.252-2.43.376-3.66.37a12.086 12.086 0 0 1-4.86-.866 8.245 8.245 0 0 1-3.22-2.435 9.814 9.814 0 0 1-1.812-3.7c-.398-1.578-.59-3.2-.574-4.825V84.514zm19.322 17.85a9.007 9.007 0 0 1 1.175-4.709 9.092 9.092 0 0 1 3.454-3.432c3.086-1.909 8.006-3.241 14.76-3.996a8.776 8.776 0 0 0-.336-2.435 5.992 5.992 0 0 0-1.036-2.057 4.728 4.728 0 0 0-1.811-1.399 6.804 6.804 0 0 0-2.788-.496 12.7 12.7 0 0 0-4.793.933 29.047 29.047 0 0 0-4.473 2.264l-2.818-5.128a33.506 33.506 0 0 1 6.143-2.96 20.766 20.766 0 0 1 7.342-1.266c4.16 0 7.246 1.209 9.258 3.626 2.013 2.418 3.03 5.906 3.05 10.465v19.382h-6.307l-.604-3.596h-.201a24.185 24.185 0 0 1-4.726 3.13 11.998 11.998 0 0 1-5.472 1.266 9.755 9.755 0 0 1-3.806-.605 9.701 9.701 0 0 1-3.268-2.03 9.268 9.268 0 0 1-2.108-3.192 9.214 9.214 0 0 1-.635-3.765zm7.514-.6a3.759 3.759 0 0 0 1.312 3.198 5.417 5.417 0 0 0 3.384 1 7.497 7.497 0 0 0 3.69-.933 17.382 17.382 0 0 0 3.489-2.665v-7.326a35.47 35.47 0 0 0-5.636 1.065 15.441 15.441 0 0 0-3.652 1.48 5.38 5.38 0 0 0-1.983 1.902c-.4.694-.608 1.48-.604 2.28zm27.641-37.632h7.715v39.032c-.071.697.12 1.395.536 1.96a1.572 1.572 0 0 0 1.14.57h.47c.241-.014.48-.059.709-.133l1.006 5.729a10.502 10.502 0 0 1-4.092.666c-2.773 0-4.719-.822-5.837-2.465-1.118-1.643-1.667-3.888-1.647-6.734V64.132zm29.921 3.464h26.433v6.527h-18.636v11.101h15.751v6.528h-15.766v12.855h19.322v6.527H285.47V67.596zm40.589 26.509l-9.796-15.652h8.32l3.69 6.194c.491.888.99 1.806 1.49 2.76.5.955 1.021 1.88 1.49 2.768h.27c.402-.888.827-1.813 1.274-2.768.447-.954.872-1.872 1.275-2.76l3.153-6.194h8.02L335.52 94.97l10.436 16.185h-8.29l-4.025-6.46a175.445 175.445 0 0 0-1.647-2.96 53.16 53.16 0 0 0-1.73-2.835h-.268c-.492.932-.976 1.872-1.446 2.827-.47.955-.947 1.946-1.439 2.96l-3.488 6.461h-8.051l10.488-17.044zm32.135 19.753v10.257h-7.715V78.453h6.373l.537 3.463h.268a23.598 23.598 0 0 1 4.63-2.96 11.78 11.78 0 0 1 5.3-1.266 12.27 12.27 0 0 1 5.464 1.162 11.342 11.342 0 0 1 4.062 3.368 15.627 15.627 0 0 1 2.55 5.262c.606 2.236.9 4.544.872 6.86a22.258 22.258 0 0 1-1.178 7.49 16.987 16.987 0 0 1-3.116 5.528 13.621 13.621 0 0 1-4.473 3.434 12.313 12.313 0 0 1-5.3 1.199 10.702 10.702 0 0 1-4.293-.933 16.413 16.413 0 0 1-4.16-2.664l.18 5.462zm0-10.924a11.546 11.546 0 0 0 3.489 2.132 9.391 9.391 0 0 0 3.153.6 6.749 6.749 0 0 0 3.1-.75 6.695 6.695 0 0 0 2.401-2.085c1.491-1.89 2.237-4.697 2.237-8.422 0-3.286-.56-5.84-1.678-7.66-1.118-1.82-2.93-2.73-5.434-2.73-2.326 0-4.74 1.233-7.245 3.7l-.023 15.215zm26.635-8.096a19.28 19.28 0 0 1 1.274-7.194 16.492 16.492 0 0 1 3.384-5.395 15.029 15.029 0 0 1 4.883-3.397 13.973 13.973 0 0 1 5.635-1.199 14.425 14.425 0 0 1 5.904 1.133c1.652.72 3.11 1.815 4.257 3.197a14.025 14.025 0 0 1 2.586 4.929c.6 2.033.893 4.142.872 6.26a15.326 15.326 0 0 1-.335 3.597h-20.947c.358 2.96 1.397 5.247 3.116 6.86a9.335 9.335 0 0 0 6.612 2.399 12.2 12.2 0 0 0 3.988-.637 17.808 17.808 0 0 0 3.66-1.761l2.617 4.796a23.763 23.763 0 0 1-5.218 2.53 18.313 18.313 0 0 1-6.038 1 17.2 17.2 0 0 1-6.374-1.17 15.135 15.135 0 0 1-5.165-3.36 15.36 15.36 0 0 1-3.46-5.365 19.655 19.655 0 0 1-1.251-7.223zm22.072-2.96c0-2.62-.55-4.663-1.648-6.128-1.098-1.466-2.785-2.206-5.061-2.22a7.291 7.291 0 0 0-2.794.533 7.25 7.25 0 0 0-2.372 1.561c-1.49 1.396-2.408 3.473-2.75 6.231l14.625.023zm12.746-13.425h6.373l.537 5.794h.268a13.77 13.77 0 0 1 4.227-4.899 9.365 9.365 0 0 1 8.856-1.014l-1.342 6.661a14.18 14.18 0 0 0-1.61-.4 10.414 10.414 0 0 0-1.811-.133 7.21 7.21 0 0 0-4.093 1.48c-1.431.987-2.674 2.731-3.727 5.233v19.981h-7.678V78.453zm27.566-5.728a4.942 4.942 0 0 1-3.422-1.2 3.986 3.986 0 0 1-1.342-3.13 4.096 4.096 0 0 1 1.342-3.167A5.376 5.376 0 0 1 447.214 64c1.25 0 2.46.434 3.421 1.228a4.096 4.096 0 0 1 1.342 3.167 3.986 3.986 0 0 1-1.342 3.13 4.942 4.942 0 0 1-3.421 1.2zm-3.891 5.728h7.7v32.703h-7.7V78.453zm14.088 16.385a19.28 19.28 0 0 1 1.275-7.194c.768-2 1.92-3.832 3.392-5.395a14.999 14.999 0 0 1 4.86-3.397 13.973 13.973 0 0 1 5.635-1.199 14.425 14.425 0 0 1 5.904 1.133 11.524 11.524 0 0 1 4.264 3.197 14.027 14.027 0 0 1 2.572 4.929 21.43 21.43 0 0 1 .872 6.26 15.331 15.331 0 0 1-.336 3.597h-20.924c.358 2.96 1.4 5.247 3.123 6.86a9.32 9.32 0 0 0 6.605 2.399c1.358.01 2.709-.205 3.995-.637a17.754 17.754 0 0 0 3.653-1.761l2.617 4.796a23.763 23.763 0 0 1-5.218 2.53 18.314 18.314 0 0 1-6.038 1 17.2 17.2 0 0 1-6.374-1.17 15.135 15.135 0 0 1-5.166-3.36 15.336 15.336 0 0 1-3.451-5.365 19.655 19.655 0 0 1-1.26-7.223zm22.072-2.96c0-2.62-.546-4.663-1.64-6.128-1.093-1.466-2.783-2.206-5.069-2.22a7.292 7.292 0 0 0-2.794.533 7.25 7.25 0 0 0-2.371 1.561c-1.491 1.396-2.408 3.473-2.75 6.231l14.624.023zm12.747-13.425h6.373l.537 4.396h.268a26.121 26.121 0 0 1 4.801-3.664 11.537 11.537 0 0 1 5.963-1.532c3.534 0 6.105 1.12 7.716 3.36 1.61 2.24 2.415 5.447 2.415 9.621v20.515h-7.678V91.656c0-2.71-.403-4.619-1.208-5.729-.805-1.11-2.124-1.667-3.958-1.672a6.963 6.963 0 0 0-3.787 1.029 24.208 24.208 0 0 0-3.727 3.034v22.846h-7.715V78.453zm34.081 16.385a18.612 18.612 0 0 1 1.342-7.26 15.956 15.956 0 0 1 3.623-5.395 15.809 15.809 0 0 1 5.27-3.368 17.074 17.074 0 0 1 6.269-1.162 13.29 13.29 0 0 1 5.605 1.096 14.812 14.812 0 0 1 4.056 2.701l-3.728 4.862a12.408 12.408 0 0 0-2.683-1.768 6.675 6.675 0 0 0-2.885-.63 8.1 8.1 0 0 0-3.603.723 8.043 8.043 0 0 0-2.905 2.238c-1.654 1.973-2.482 4.628-2.482 7.963s.83 5.975 2.49 7.919a7.811 7.811 0 0 0 2.816 2.223 7.87 7.87 0 0 0 3.52.737 8.414 8.414 0 0 0 3.727-.836 14.603 14.603 0 0 0 3.05-1.961l3.22 4.862a16.751 16.751 0 0 1-5.167 3.13 15.993 15.993 0 0 1-5.635 1.066 17.173 17.173 0 0 1-6.269-1.132 14.172 14.172 0 0 1-5.069-3.33 15.383 15.383 0 0 1-3.354-5.396 20.44 20.44 0 0 1-1.208-7.282zm28.043 0a19.28 19.28 0 0 1 1.275-7.194c.768-2 1.92-3.832 3.392-5.395a14.999 14.999 0 0 1 4.86-3.397 13.983 13.983 0 0 1 5.665-1.199 14.425 14.425 0 0 1 5.904 1.133 11.523 11.523 0 0 1 4.264 3.197 14.026 14.026 0 0 1 2.579 4.929c.599 2.033.893 4.142.872 6.26a15.331 15.331 0 0 1-.335 3.597h-20.962c.358 2.96 1.4 5.247 3.123 6.86a9.32 9.32 0 0 0 6.605 2.399c1.358.01 2.709-.205 3.996-.637a17.754 17.754 0 0 0 3.652-1.761l2.617 4.796a23.763 23.763 0 0 1-5.218 2.53 18.314 18.314 0 0 1-6.038 1 17.2 17.2 0 0 1-6.374-1.17 15.135 15.135 0 0 1-5.166-3.36 15.336 15.336 0 0 1-3.451-5.365 19.655 19.655 0 0 1-1.26-7.223zm22.072-2.96c0-2.62-.546-4.663-1.64-6.128-1.093-1.466-2.783-2.206-5.069-2.22a7.292 7.292 0 0 0-2.794.533 7.25 7.25 0 0 0-2.371 1.561c-1.491 1.396-2.408 3.473-2.75 6.231l14.624.023zM94 138.383h14.76a31.36 31.36 0 0 1 6.708.666 13.947 13.947 0 0 1 5.263 2.265 11.157 11.157 0 0 1 3.489 4.16 16.276 16.276 0 0 1 0 12.625 12.263 12.263 0 0 1-3.519 4.44 14.759 14.759 0 0 1-5.3 2.598 25.07 25.07 0 0 1-6.612.836h-6.977v15.986H94v-43.576zm14.163 21.38c6.46 0 9.69-2.641 9.69-7.925 0-2.753-.804-4.653-2.414-5.699-1.61-1.046-4.048-1.566-7.313-1.561h-6.374v15.186h6.411zm23.541-24.844h7.73v39.031c-.07.698.12 1.396.537 1.962a1.572 1.572 0 0 0 1.14.57h.507c.239-.015.474-.06.7-.134l1.007 5.728a10.502 10.502 0 0 1-4.092.666c-2.773 0-4.719-.821-5.837-2.464-1.118-1.643-1.682-3.888-1.692-6.735V134.92zm15.43 38.232a9.007 9.007 0 0 1 1.175-4.709 9.091 9.091 0 0 1 3.454-3.432c3.086-1.909 8.006-3.241 14.76-3.996a8.775 8.775 0 0 0-.336-2.435 5.992 5.992 0 0 0-1.036-2.057 4.728 4.728 0 0 0-1.811-1.399 6.805 6.805 0 0 0-2.788-.496 12.7 12.7 0 0 0-4.793.933 29.048 29.048 0 0 0-4.473 2.264l-2.818-5.128a33.503 33.503 0 0 1 6.143-2.998 20.813 20.813 0 0 1 7.342-1.265c4.16 0 7.246 1.209 9.258 3.626 2.013 2.418 3.02 5.916 3.02 10.494v19.383h-6.307l-.604-3.597h-.201a24.189 24.189 0 0 1-4.726 3.13 11.998 11.998 0 0 1-5.472 1.266 9.755 9.755 0 0 1-3.806-.604 9.701 9.701 0 0 1-3.268-2.03 9.268 9.268 0 0 1-2.09-3.192 9.213 9.213 0 0 1-.623-3.758zm7.514-.6a3.757 3.757 0 0 0 1.312 3.198 5.417 5.417 0 0 0 3.384.999 7.495 7.495 0 0 0 3.69-.932 17.379 17.379 0 0 0 3.488-2.665v-7.326a35.48 35.48 0 0 0-5.635 1.065 15.575 15.575 0 0 0-3.653 1.48 5.439 5.439 0 0 0-1.982 1.902c-.4.694-.608 1.48-.604 2.28zm28.766-17.251h-4.696v-5.728l5.099-.333.939-8.925h6.44v8.925h8.387v6.062h-8.372v15.585c0 3.82 1.543 5.729 4.63 5.729a8.25 8.25 0 0 0 1.781-.2c.564-.12 1.113-.3 1.64-.533l1.342 5.661c-.998.339-2.017.616-3.049.83-1.203.251-2.43.375-3.66.37a12.108 12.108 0 0 1-4.86-.867 8.245 8.245 0 0 1-3.22-2.434 10.035 10.035 0 0 1-1.812-3.7 18.97 18.97 0 0 1-.574-4.826l-.015-15.615zm38.591-14.32a8.91 8.91 0 0 0-3.623-.799c-2.773 0-4.16 1.843-4.16 5.528v3.53h6.464v6.062h-6.44v26.642h-7.723v-26.642h-4.473v-5.728l4.428-.334v-3.396a17.45 17.45 0 0 1 .604-4.7 9.598 9.598 0 0 1 1.945-3.7 9.004 9.004 0 0 1 3.459-2.457 12.807 12.807 0 0 1 4.994-.866 16.556 16.556 0 0 1 6.038 1.132l-1.513 5.728zm.269 24.645a19.47 19.47 0 0 1 1.274-7.26 15.927 15.927 0 0 1 3.46-5.396 15.145 15.145 0 0 1 4.985-3.363 15.235 15.235 0 0 1 5.912-1.166 15.558 15.558 0 0 1 5.964 1.162 14.668 14.668 0 0 1 4.994 3.367 16.629 16.629 0 0 1 3.459 5.396 20.854 20.854 0 0 1 0 14.52 16.628 16.628 0 0 1-3.459 5.395 14.267 14.267 0 0 1-4.994 3.33 15.964 15.964 0 0 1-5.964 1.133 15.689 15.689 0 0 1-5.903-1.133 14.685 14.685 0 0 1-4.995-3.33 15.926 15.926 0 0 1-3.459-5.395 19.471 19.471 0 0 1-1.274-7.26zm7.916 0c0 3.285.683 5.915 2.05 7.889a6.483 6.483 0 0 0 2.44 2.22 6.539 6.539 0 0 0 3.225.74 6.628 6.628 0 0 0 3.24-.742 6.573 6.573 0 0 0 2.463-2.218c1.386-1.974 2.08-4.604 2.08-7.89 0-3.285-.694-5.94-2.08-7.963a6.566 6.566 0 0 0-2.462-2.219 6.62 6.62 0 0 0-3.24-.74 6.531 6.531 0 0 0-3.226.738 6.476 6.476 0 0 0-2.44 2.221c-1.371 1.979-2.055 4.633-2.05 7.964zm29.72-16.385h6.373l.537 5.795h.268a13.77 13.77 0 0 1 4.227-4.9 9.364 9.364 0 0 1 8.856-1.014l-1.342 6.661a14.178 14.178 0 0 0-1.61-.4 10.413 10.413 0 0 0-1.811-.133 7.21 7.21 0 0 0-4.093 1.48c-1.431.987-2.661 2.731-3.69 5.233v19.982h-7.715V149.24zm23.682 0h6.373l.537 4.44h.254a23.075 23.075 0 0 1 4.524-3.7 10.23 10.23 0 0 1 5.539-1.532 9.894 9.894 0 0 1 5.8 1.532 9.526 9.526 0 0 1 3.324 4.33 26.444 26.444 0 0 1 4.897-4.197 10.206 10.206 0 0 1 5.703-1.665c3.479 0 6.05 1.12 7.715 3.36 1.665 2.24 2.492 5.447 2.482 9.621v20.515h-7.767v-19.501c0-2.709-.415-4.618-1.245-5.728a4.393 4.393 0 0 0-1.684-1.303 4.426 4.426 0 0 0-2.103-.362c-2.057 0-4.36 1.354-6.91 4.063v22.846h-7.715v-19.516c0-2.709-.415-4.618-1.245-5.728a4.47 4.47 0 0 0-1.72-1.316 4.501 4.501 0 0 0-2.141-.357c-2.058 0-4.36 1.355-6.91 4.063v22.846h-7.708V149.24zM56.969 78.647c-4.309-4.51-11.78-6.565-18.62-4.239 5.293-5.603 17.548-4.457 24.317 1.652 13.27 11.954-3.536 41.174-19.688 30.492 4.765-1.382 9.512-4.428 12.612-7.872l.002-.002c3.423-3.838 4.937-7.635 4.994-11.107.058-3.473-1.345-6.546-3.617-8.924z" fill="#fff"/><path d="M56.072 79.502v.001c2.076 2.173 3.326 4.94 3.275 8.048-.052 3.108-1.407 6.63-4.68 10.3-2.991 3.324-7.628 6.278-12.228 7.565h-.001l-.06-.043a13.245 13.245 0 0 1-.875-.679 28.934 28.934 0 0 1-.932-.84c-2.136-2.017-3.969-4.442-4.925-7.934a18.404 18.404 0 0 1-.357-1.574c-.699-3.845-.433-8.922 1.48-15.92l.002-.005a6.49 6.49 0 0 1 .048-.175c.255-.87.67-1.634 1.154-2.379.824-.326 1.66-.582 2.5-.77 5.883-1.323 11.98.619 15.599 4.405z" fill="#fff"/><path d="M40.695 105.635c.28.24.558.452.83.65-3.21.717-6.372.558-8.89-.889-6.552-3.653-8.175-16.64-3.131-23.596 2.05-2.769 4.464-4.721 7.04-5.978a9.12 9.12 0 0 0-.972 2.28c-2.219 8.12-2.3 13.848-1.122 18.145 1.182 4.314 3.61 7.108 6.243 9.386l.002.002z" fill="#fff"/></svg>