<svg fill="none" height="100" viewBox="0 0 100 100" width="100" xmlns="http://www.w3.org/2000/svg"><g fill="#09101d"><path d="m66.079 31.688c-6.95-7.274-19-10.588-30.031-6.836 8.536-9.037 28.302-7.189 39.22 2.664 21.402 19.28-5.703 66.41-31.756 49.18 7.686-2.228 15.343-7.14 20.343-12.697l.003-.003c5.52-6.19 7.963-12.314 8.056-17.913.092-5.602-2.17-10.56-5.835-14.395z"/><path d="m64.632 33.068v.002c3.35 3.505 5.365 7.969 5.282 12.98-.083 5.013-2.268 10.694-7.547 16.612v.001c-4.825 5.36-12.304 10.125-19.724 12.201h-.001a21.36 21.36 0 0 1 -1.507-1.164 46.83 46.83 0 0 1 -1.504-1.356c-3.445-3.252-6.401-7.164-7.944-12.796a29.683 29.683 0 0 1 -.576-2.539c-1.127-6.2-.698-14.39 2.387-25.676l.003-.009c.025-.095.051-.19.079-.283.41-1.403 1.078-2.635 1.861-3.836a27.067 27.067 0 0 1 4.033-1.243c9.487-2.133 19.322 1 25.158 7.106z"/><path d="m39.831 75.218a22 22 0 0 0 1.338 1.05c-5.178 1.154-10.278.897-14.34-1.436-10.566-5.89-13.184-26.837-5.049-38.058 3.308-4.465 7.2-7.615 11.355-9.641-.642 1.1-1.206 2.306-1.567 3.678-3.58 13.094-3.71 22.335-1.81 29.266 1.906 6.957 5.823 11.464 10.07 15.138z"/></g></svg>