<svg width="100" height="100" viewBox="0 0 100 100" fill="none" xmlns="http://www.w3.org/2000/svg"><path fill-rule="evenodd" clip-rule="evenodd" d="M34.778 26.394c7.668-10.753 28.988-9.257 40.49 1.122 21.694 19.544-6.452 67.701-32.822 48.438-.655-.467-1.31-.935-1.964-1.496-8.322-7.2-15.055-17.393-7.948-43.388.467-1.777 1.309-3.273 2.244-4.676z" fill="#1AA0E8"/><path fill-rule="evenodd" clip-rule="evenodd" d="M34.778 26.394c22.162-9.07 49.934 12.718 28.333 36.937-5.049 5.61-12.904 10.566-20.665 12.623-5.61 1.497-11.221 1.403-15.616-1.122-10.567-5.89-13.185-26.837-5.05-38.058 3.74-5.05 8.23-8.416 12.998-10.38z" fill="#0B63CE"/><path d="M63.111 63.33c21.601-24.218-6.171-46.006-28.333-36.936-.935 1.403-1.777 2.899-2.244 4.676-7.107 25.995-.374 36.188 7.948 43.388.655.561 1.31 1.029 1.964 1.496 7.761-2.057 15.616-7.013 20.666-12.623z" fill="#134194"/></svg>