<svg viewBox="0 0 16 16" fill="none" xmlns="http://www.w3.org/2000/svg"><path fill="#000" fill-rule="evenodd" clip-rule="evenodd" d="M0 1.185C0 .531.53 0 1.185 0h13.63C15.469 0 16 .53 16 1.185v13.63c0 .654-.53 1.185-1.185 1.185H1.185C.531 16 0 15.47 0 14.815V1.185zm2.37 1.482c0-.164.133-.297.297-.297h1.777c.164 0 .297.133.297.297v1.777a.296.296 0 0 1-.297.297H2.667a.296.296 0 0 1-.297-.297V2.667zm3.26-.297a.296.296 0 0 0-.297.297v1.777c0 .164.133.297.297.297h1.777a.296.296 0 0 0 .297-.297V2.667a.296.296 0 0 0-.297-.297H5.63zm2.666.297c0-.164.133-.297.297-.297h1.777c.164 0 .297.133.297.297v1.777a.296.296 0 0 1-.297.297H8.593a.296.296 0 0 1-.297-.297V2.667zm-5.63 2.666a.296.296 0 0 0-.296.297v1.777c0 .164.133.297.297.297h1.777a.296.296 0 0 0 .297-.297V5.63a.296.296 0 0 0-.297-.297H2.667zm2.667.297c0-.164.133-.297.297-.297h1.777c.164 0 .297.133.297.297v1.777a.296.296 0 0 1-.297.297H5.63a.296.296 0 0 1-.297-.297V5.63zm6.223-.297a.296.296 0 0 0-.297.297v1.777c0 .164.133.297.297.297h1.777a.296.296 0 0 0 .297-.297V5.63a.296.296 0 0 0-.297-.297h-1.777zM2.37 8.593c0-.164.133-.297.297-.297h1.777c.164 0 .297.133.297.297v1.777a.296.296 0 0 1-.297.297H2.667a.296.296 0 0 1-.297-.297V8.593zm6.223-.297a.296.296 0 0 0-.297.297v1.777c0 .164.133.297.297.297h1.777a.296.296 0 0 0 .297-.297V8.593a.296.296 0 0 0-.297-.297H8.593zm2.666.297c0-.164.133-.297.297-.297h1.777c.164 0 .297.133.297.297v1.777a.296.296 0 0 1-.297.297h-1.777a.296.296 0 0 1-.297-.297V8.593zm-5.63 2.666a.296.296 0 0 0-.296.297v1.777c0 .164.133.297.297.297h1.777a.296.296 0 0 0 .297-.297v-1.777a.296.296 0 0 0-.297-.297H5.63zm2.667.297c0-.164.133-.297.297-.297h1.777c.164 0 .297.133.297.297v1.777a.296.296 0 0 1-.297.297H8.593a.296.296 0 0 1-.297-.297v-1.777zm3.26-.297a.296.296 0 0 0-.297.297v1.777c0 .164.133.297.297.297h1.777a.296.296 0 0 0 .297-.297v-1.777a.296.296 0 0 0-.297-.297h-1.777z" /></svg>