<svg width="470" height="94" viewBox="0 0 470 94" fill="none" xmlns="http://www.w3.org/2000/svg">
<path fill-rule="evenodd" clip-rule="evenodd" d="M0 4C0 1.79086 1.79086 0 4 0H50C52.2091 0 54 1.79086 54 4V50C54 52.2091 52.2091 54 50 54H4C1.79086 54 0 52.2091 0 50V4ZM8 9C8 8.44772 8.44771 8 9 8H15C15.5523 8 16 8.44772 16 9V15C16 15.5523 15.5523 16 15 16H9C8.44771 16 8 15.5523 8 15V9ZM19 8C18.4477 8 18 8.44772 18 9V15C18 15.5523 18.4477 16 19 16H25C25.5523 16 26 15.5523 26 15V9C26 8.44772 25.5523 8 25 8H19ZM28 9C28 8.44772 28.4477 8 29 8H35C35.5523 8 36 8.44772 36 9V15C36 15.5523 35.5523 16 35 16H29C28.4477 16 28 15.5523 28 15V9ZM9 18C8.44771 18 8 18.4477 8 19V25C8 25.5523 8.44771 26 9 26H15C15.5523 26 16 25.5523 16 25V19C16 18.4477 15.5523 18 15 18H9ZM18 19C18 18.4477 18.4477 18 19 18H25C25.5523 18 26 18.4477 26 19V25C26 25.5523 25.5523 26 25 26H19C18.4477 26 18 25.5523 18 25V19ZM39 18C38.4477 18 38 18.4477 38 19V25C38 25.5523 38.4477 26 39 26H45C45.5523 26 46 25.5523 46 25V19C46 18.4477 45.5523 18 45 18H39ZM8 29C8 28.4477 8.44771 28 9 28H15C15.5523 28 16 28.4477 16 29V35C16 35.5523 15.5523 36 15 36H9C8.44771 36 8 35.5523 8 35V29ZM29 28C28.4477 28 28 28.4477 28 29V35C28 35.5523 28.4477 36 29 36H35C35.5523 36 36 35.5523 36 35V29C36 28.4477 35.5523 28 35 28H29ZM38 29C38 28.4477 38.4477 28 39 28H45C45.5523 28 46 28.4477 46 29V35C46 35.5523 45.5523 36 45 36H39C38.4477 36 38 35.5523 38 35V29ZM19 38C18.4477 38 18 38.4477 18 39V45C18 45.5523 18.4477 46 19 46H25C25.5523 46 26 45.5523 26 45V39C26 38.4477 25.5523 38 25 38H19ZM28 39C28 38.4477 28.4477 38 29 38H35C35.5523 38 36 38.4477 36 39V45C36 45.5523 35.5523 46 35 46H29C28.4477 46 28 45.5523 28 45V39ZM39 38C38.4477 38 38 38.4477 38 39V45C38 45.5523 38.4477 46 39 46H45C45.5523 46 46 45.5523 46 45V39C46 38.4477 45.5523 38 45 38H39Z" transform="translate(16 16)" fill="#0B63CE"/>
<path d="M6.82094 81H25.3936C37.2275 81 46.0208 75.987 46.0208 65.2214C46.0208 57.9896 41.6653 53.7984 35.7483 52.4835V52.1548C40.4326 50.5112 43.2267 45.5804 43.2267 40.4853C43.2267 30.6237 35.0909 27.2543 23.9966 27.2543H6.82094V81ZM16.3538 49.4429V34.6505H23.3391C30.3244 34.6505 33.8582 36.6228 33.8582 41.8823C33.8582 46.4844 30.6531 49.4429 23.1748 49.4429H16.3538ZM16.3538 73.6038V56.5925H24.4075C32.4611 56.5925 36.7345 59.0579 36.7345 64.7284C36.7345 70.7275 32.2967 73.6038 24.4075 73.6038H16.3538ZM64.2384 81.9862C66.4573 81.9862 68.1009 81.6574 69.2514 81.1644L68.0187 74.0969C67.2791 74.2612 66.9504 74.2612 66.5395 74.2612C65.5533 74.2612 64.485 73.4394 64.485 71.1384V22.9809H55.0343V70.6453C55.0343 77.6306 57.4997 81.9862 64.2384 81.9862ZM89.3431 81.9862C94.8492 81.9862 98.7938 79.2742 102.328 75.083H102.574L103.314 81H111.039V40.6496H101.588V68.2621C98.5473 72.2067 96.1641 73.8503 92.6303 73.8503C88.2748 73.8503 86.3847 71.3849 86.3847 64.7284V40.6496H76.934V65.9611C76.934 76.1514 80.7142 81.9862 89.3431 81.9862ZM140.267 81.9862C145.362 81.9862 150.211 80.1782 154.073 77.6306L150.868 71.7137C147.91 73.6038 144.951 74.6721 141.5 74.6721C135.008 74.6721 130.406 70.5631 129.584 63.4135H155.224C155.47 62.4273 155.635 60.6194 155.635 58.8114C155.635 47.5527 149.882 39.6635 138.952 39.6635C129.502 39.6635 120.38 47.7171 120.38 60.8659C120.38 74.1791 129.091 81.9862 140.267 81.9862ZM129.502 57.0034C130.323 50.5112 134.432 46.9775 139.199 46.9775C144.705 46.9775 147.417 50.7578 147.417 57.0034H129.502ZM164.661 96.9429H174.112V84.2872L173.865 77.5484C177.152 80.3426 180.686 81.9862 184.22 81.9862C193.178 81.9862 201.478 74.0147 201.478 60.2085C201.478 47.7171 195.643 39.6635 185.617 39.6635C181.179 39.6635 176.824 42.0467 173.454 44.923H173.126L172.468 40.6496H164.661V96.9429ZM182.248 74.1791C179.864 74.1791 177.07 73.2751 174.112 70.8097V51.9905C177.235 48.9498 180.029 47.4706 182.987 47.4706C189.069 47.4706 191.698 52.237 191.698 60.2906C191.698 69.4126 187.589 74.1791 182.248 74.1791ZM211.048 81H220.499V56.346C222.964 50.2647 226.826 48.0458 230.031 48.0458C231.757 48.0458 232.826 48.2924 234.223 48.7033L235.866 40.4853C234.634 39.91 233.319 39.6635 231.264 39.6635C226.991 39.6635 222.717 42.5398 219.841 47.7993H219.512L218.855 40.6496H211.048V81ZM241.705 81H251.156V40.6496H241.705V81ZM246.471 33.5821C249.841 33.5821 252.306 31.3633 252.306 28.2404C252.306 25.0354 249.841 22.8166 246.471 22.8166C243.102 22.8166 240.637 25.0354 240.637 28.2404C240.637 31.3633 243.102 33.5821 246.471 33.5821ZM263.213 81H272.664V52.8123C276.033 49.5251 278.334 47.7993 281.868 47.7993C286.305 47.7993 288.196 50.2647 288.196 56.9213V81H297.646V55.6886C297.646 45.4982 293.866 39.6635 285.237 39.6635C279.731 39.6635 275.622 42.5398 272.006 46.0735H271.677L271.02 40.6496H263.213V81ZM323.416 81.9862C326.621 81.9862 329.415 81.2465 331.634 80.5069L329.99 73.5216C328.839 74.0147 327.196 74.4256 325.799 74.4256C321.936 74.4256 320.128 72.1246 320.128 67.3581V48.128H330.401V40.6496H320.128V29.6375H312.239L311.089 40.6496L304.843 41.0605V48.128H310.595V67.3581C310.595 76.0692 314.047 81.9862 323.416 81.9862ZM349.348 81.9862C359.539 81.9862 365.045 76.3979 365.045 69.4948C365.045 61.9342 358.964 59.3045 353.457 57.25C349.102 55.6886 345.075 54.4559 345.075 51.2508C345.075 48.7033 346.965 46.8131 350.992 46.8131C354.197 46.8131 357.073 48.2102 359.868 50.2647L364.223 44.5121C360.936 41.9645 356.416 39.6635 350.828 39.6635C341.788 39.6635 336.117 44.6764 336.117 51.7439C336.117 58.4827 342.117 61.5233 347.458 63.4957C351.732 65.1393 356.087 66.6185 356.087 69.9879C356.087 72.782 354.033 74.8365 349.677 74.8365C345.568 74.8365 342.117 73.1107 338.501 70.3166L334.063 76.3979C338.008 79.6029 343.842 81.9862 349.348 81.9862Z" transform="translate(86 -11.3)" fill="#09101D"/>
</svg>
