<svg width="595" height="94" viewBox="0 0 595 94" fill="none" xmlns="http://www.w3.org/2000/svg">
<path d="M27.9561 49.391H4.72888V1.10991C4.72888 0.554951 4.17256 2.11699e-06 3.61622 2.11699e-06H1.11268C0.556344 2.11699e-06 0 0.554951 0 1.10991V52.7207C0 53.2757 0.556344 53.8306 1.11268 53.8306H27.9561C28.5124 53.8306 29.0688 53.2757 29.0688 52.7207V50.5009C29.0688 49.9459 28.5124 49.391 27.9561 49.391Z" transform="translate(8 15.827)" fill="#FEFEFE"/>
<path d="M3.47713 -4.23397e-06H1.11269C0.556348 -4.23397e-06 4.24454e-06 0.554955 4.24454e-06 1.10991V38.5694C4.24454e-06 39.1243 0.556348 39.6793 1.11269 39.6793H3.47713C4.03347 39.6793 4.58981 39.1243 4.58981 38.5694V1.10991C4.58981 0.416216 4.17255 -4.23397e-06 3.47713 -4.23397e-06Z" transform="translate(42.4931 30.1171)" fill="#FEFEFE"/>
<path d="M20.1673 4.85585L21.0018 2.77477C21.1409 2.21982 21.0018 1.66486 20.4455 1.38738C18.4983 0.554951 16.5511 -4.23397e-06 14.8821 -4.23397e-06C11.9613 -4.23397e-06 9.45778 0.971173 7.78876 3.05225C6.11974 4.9946 5.14615 8.04685 5.14615 11.9315V20.1171L0.973599 20.3946C0.417259 20.3946 8.48907e-06 20.9495 8.48907e-06 21.5045V23.4469C8.48907e-06 24.0018 0.556331 24.5567 1.11267 24.5567H5.14615V58.6865C5.14615 59.2414 5.70249 59.7964 6.25883 59.7964H8.62327C9.17961 59.7964 9.73596 59.2414 9.73596 58.6865V24.5567H17.5247C18.081 24.5567 18.6374 24.0018 18.6374 23.4469V21.227C18.6374 20.6721 18.081 20.1171 17.5247 20.1171H9.73596V12.3477C9.73596 9.71171 10.1532 7.76937 10.9877 6.38199C11.8222 5.13334 12.9349 4.57838 14.743 4.57838C15.4384 4.57838 16.1339 4.71711 16.6902 4.85585C17.3856 4.99459 18.0811 5.27207 18.7765 5.54955C19.0547 5.68828 19.3328 5.68828 19.611 5.54955C19.8891 5.27207 20.1673 5.13333 20.1673 4.85585Z" transform="translate(54.0371 10)" fill="#FEFEFE"/>
<path d="M17.1074 0C14.8821 0 12.6567 0.554963 10.5705 1.52613C8.48418 2.49731 6.67608 3.88469 5.14615 5.6883C3.61621 7.4919 2.22537 9.71172 1.39086 12.209C0.417263 14.7063 8.48907e-06 17.6198 8.48907e-06 20.8108C8.48907e-06 24.0018 0.417263 26.9153 1.39086 29.4126C2.36445 31.9099 3.6162 34.1297 5.28522 35.9333C6.95424 37.7369 8.90145 39.1243 11.1268 40.0955C13.3522 41.0667 15.7166 41.4829 18.2201 41.4829C21.1409 41.4829 23.6444 41.0667 25.4525 40.2342C27.2606 39.4018 28.9297 38.5694 30.3205 37.7369C30.8769 37.4595 31.0159 36.7658 30.7378 36.3495L29.6251 34.2685C29.486 33.991 29.2078 33.8523 28.9297 33.7135C28.6515 33.7135 28.2343 33.7135 28.0952 33.8522C26.8434 34.8234 25.3135 35.6559 23.7835 36.2108C22.2536 36.7658 20.4455 37.0432 18.4983 37.0432C16.412 37.0432 14.6039 36.627 12.9349 35.7946C11.2659 34.9622 9.87504 33.8522 8.62327 32.4649C7.37151 31.0775 6.537 29.2739 5.84157 27.3315C5.28523 25.6667 5.00707 23.8631 4.86798 21.9207H31.2941C31.8505 21.9207 32.2677 21.5045 32.4068 21.0883C32.5459 20.5333 32.5459 19.9784 32.5459 19.5622V18.3135C32.5459 12.4865 31.155 7.90811 28.5124 4.85586C25.4526 1.52613 21.6972 0 17.1074 0ZM27.6779 17.6198H4.5898C4.86797 15.8162 5.28523 14.1514 5.84157 12.6252C6.537 10.8216 7.51058 9.2955 8.76234 8.04685C9.87502 6.7982 11.1268 5.82703 12.6567 5.27208C14.0476 4.57838 15.5775 4.30091 17.1074 4.30091C20.3064 4.30091 22.949 5.41082 24.7571 7.76938C26.5652 9.9892 27.5388 13.3189 27.6779 17.6198Z" transform="translate(73.509 29.146)" fill="#FEFEFE"/>
<path d="M18.3592 0.832441C17.6638 0.416225 16.9684 0.277486 16.273 0.138747C15.5775 8.46587e-06 15.0212 0 14.3257 0C11.8222 0 9.45778 0.832437 7.51059 2.4973C6.39791 3.46847 5.42432 4.57837 4.45073 5.82702L4.31163 2.08108C4.31163 1.52613 3.75529 0.971167 3.19895 0.971167H1.11268C0.556336 0.971167 -8.48907e-06 1.52613 -8.48907e-06 2.08108V39.5405C-8.48907e-06 40.0955 0.556336 40.6505 1.11268 40.6505H3.47712C4.03346 40.6505 4.5898 40.0955 4.5898 39.5405V13.7351C5.98065 10.2667 7.5106 7.90811 9.3187 6.65946C10.9877 5.27208 12.5176 4.71711 14.0476 4.71711C14.8821 4.71711 15.2994 4.71712 15.5775 4.85586C15.8557 4.85586 16.412 5.13334 16.9684 5.27208C17.2465 5.41081 17.5247 5.41081 17.8029 5.27208C18.081 5.13334 18.3592 4.85586 18.3592 4.57838L19.0547 2.35855C19.1937 1.66486 18.9156 1.10992 18.3592 0.832441Z" transform="translate(112.87 29.146)" fill="#FEFEFE"/>
<path d="M31.8505 0.971167H29.6251C29.0688 0.971167 28.5124 1.38739 28.5124 2.08108L28.3734 3.74594C26.9825 2.77477 25.7307 2.08108 24.4789 1.38739C22.6708 0.554955 20.4455 0 17.942 0C15.4385 0 13.2131 0.554963 10.9877 1.52613C8.90143 2.49731 6.95426 3.88469 5.28524 5.6883C3.61622 7.4919 2.36445 9.71172 1.39085 12.209C0.417259 14.7063 4.24454e-06 17.6198 4.24454e-06 20.8108C4.24454e-06 27.4703 1.52994 32.6036 4.45072 36.0721C7.51059 39.6793 11.544 41.4829 16.6902 41.4829C19.4719 41.4829 21.9754 40.7892 24.3399 39.5405C25.8698 38.7081 27.2606 37.7369 28.5124 36.627L28.6515 39.5405C28.6515 40.0955 29.2079 40.5117 29.7642 40.5117H31.8505C32.4068 40.5117 32.9631 39.9567 32.9631 39.4018V1.94233C32.9631 1.38738 32.4068 0.971167 31.8505 0.971167ZM28.3734 8.87927V31.0775C26.4262 33.0198 24.479 34.4072 22.6709 35.5171C20.8628 36.4883 18.9155 37.0432 16.8293 37.0432C14.8821 37.0432 13.074 36.627 11.6831 35.9333C10.2923 35.2396 8.90144 34.1297 7.92784 32.7423C6.95425 31.355 6.11974 29.5513 5.5634 27.609C5.00706 25.6667 4.72889 23.3081 4.72889 20.8108C4.72889 18.591 5.14614 16.3712 5.70248 14.4288C6.3979 12.4865 7.3715 10.6829 8.48418 9.15676C9.59686 7.63064 10.9877 6.52073 12.6567 5.6883C14.1867 4.85586 15.8557 4.43964 17.6638 4.43964C19.4719 4.43964 21.28 4.85586 22.949 5.54955C24.7571 6.1045 26.4262 7.35314 28.3734 8.87927Z" transform="translate(131.507 29.146)" fill="#FEFEFE"/>
<path d="M33.2989 0.41622C33.0207 0.138743 32.7426 0 32.4644 0H29.9609C29.5436 0 29.1263 0.277478 28.9873 0.693694L20.5031 25.2504C19.9467 26.7766 19.3904 28.5802 18.695 30.5225C18.4168 31.6324 17.9995 32.6036 17.7214 33.5748C17.3041 32.6036 16.8869 31.4937 16.4696 30.5225C15.7742 28.5802 15.0788 26.9153 14.3833 25.3892L4.78649 0.832441C4.6474 0.416225 4.23013 0.138747 3.81288 0.138747H1.17027C0.753015 0.138747 0.474828 0.27749 0.196658 0.554968C0.0576179 0.693673 -0.0814775 1.24866 0.0576074 1.52613L15.496 39.5405L14.5224 42.5928C13.5488 45.5063 12.2971 48.0036 10.628 49.8072C9.23718 51.6108 7.56819 52.4432 5.48191 52.4432C5.06466 52.4432 4.50832 52.4432 4.09106 52.3045C3.53472 52.1658 3.11747 52.027 2.70021 51.8883C2.42204 51.7496 2.14386 51.7496 1.86569 51.8883C1.58753 52.027 1.44845 52.3045 1.30936 52.582L0.613939 54.8018C0.474854 55.3568 0.753015 55.9117 1.17027 56.0505C2.42203 56.6054 3.81288 56.8829 5.20373 56.8829C7.01183 56.8829 8.68085 56.4667 10.0717 55.6342C11.4625 54.9405 12.7143 53.8306 13.827 52.582C14.9397 51.3333 15.7742 49.946 16.4696 48.4198C17.165 46.8937 17.8604 45.5063 18.2777 43.9802L33.2989 1.24866C33.4408 0.882885 33.5199 0.636626 33.2989 0.41622Z" transform="translate(169.559 30.1171)" fill="#FEFEFE"/>
<path d="M4.17254 0H1.39084C0.695416 0 -8.48907e-06 0.554955 -8.48907e-06 1.38739V4.16216C-8.48907e-06 4.85586 0.556331 5.54955 1.39084 5.54955H4.17254C4.86797 5.54955 5.56339 4.99459 5.56339 4.16216V1.38739C5.56339 0.693694 4.86797 0 4.17254 0Z" transform="translate(41.9367 15.9658)" fill="#FEFEFE"/>
<path d="M6.82094 81H25.3936C37.2275 81 46.0208 75.987 46.0208 65.2214C46.0208 57.9896 41.6653 53.7984 35.7483 52.4835V52.1548C40.4326 50.5112 43.2267 45.5804 43.2267 40.4853C43.2267 30.6237 35.0909 27.2543 23.9966 27.2543H6.82094V81ZM16.3538 49.4429V34.6505H23.3391C30.3244 34.6505 33.8582 36.6228 33.8582 41.8823C33.8582 46.4844 30.6531 49.4429 23.1748 49.4429H16.3538ZM16.3538 73.6038V56.5925H24.4075C32.4611 56.5925 36.7345 59.0579 36.7345 64.7284C36.7345 70.7275 32.2967 73.6038 24.4075 73.6038H16.3538ZM64.2384 81.9862C66.4573 81.9862 68.1009 81.6574 69.2514 81.1644L68.0187 74.0969C67.2791 74.2612 66.9504 74.2612 66.5395 74.2612C65.5533 74.2612 64.485 73.4394 64.485 71.1384V22.9809H55.0343V70.6453C55.0343 77.6306 57.4997 81.9862 64.2384 81.9862ZM89.3431 81.9862C94.8492 81.9862 98.7938 79.2742 102.328 75.083H102.574L103.314 81H111.039V40.6496H101.588V68.2621C98.5473 72.2067 96.1641 73.8503 92.6303 73.8503C88.2748 73.8503 86.3847 71.3849 86.3847 64.7284V40.6496H76.934V65.9611C76.934 76.1514 80.7142 81.9862 89.3431 81.9862ZM140.267 81.9862C145.362 81.9862 150.211 80.1782 154.073 77.6306L150.868 71.7137C147.91 73.6038 144.951 74.6721 141.5 74.6721C135.008 74.6721 130.406 70.5631 129.584 63.4135H155.224C155.47 62.4273 155.635 60.6194 155.635 58.8114C155.635 47.5527 149.882 39.6635 138.952 39.6635C129.502 39.6635 120.38 47.7171 120.38 60.8659C120.38 74.1791 129.091 81.9862 140.267 81.9862ZM129.502 57.0034C130.323 50.5112 134.432 46.9775 139.199 46.9775C144.705 46.9775 147.417 50.7578 147.417 57.0034H129.502ZM164.661 96.9429H174.112V84.2872L173.865 77.5484C177.152 80.3426 180.686 81.9862 184.22 81.9862C193.178 81.9862 201.478 74.0147 201.478 60.2085C201.478 47.7171 195.643 39.6635 185.617 39.6635C181.179 39.6635 176.824 42.0467 173.454 44.923H173.126L172.468 40.6496H164.661V96.9429ZM182.248 74.1791C179.864 74.1791 177.07 73.2751 174.112 70.8097V51.9905C177.235 48.9498 180.029 47.4706 182.987 47.4706C189.069 47.4706 191.698 52.237 191.698 60.2906C191.698 69.4126 187.589 74.1791 182.248 74.1791ZM211.048 81H220.499V56.346C222.964 50.2647 226.826 48.0458 230.031 48.0458C231.757 48.0458 232.826 48.2924 234.223 48.7033L235.866 40.4853C234.634 39.91 233.319 39.6635 231.264 39.6635C226.991 39.6635 222.717 42.5398 219.841 47.7993H219.512L218.855 40.6496H211.048V81ZM241.705 81H251.156V40.6496H241.705V81ZM246.471 33.5821C249.841 33.5821 252.306 31.3633 252.306 28.2404C252.306 25.0354 249.841 22.8166 246.471 22.8166C243.102 22.8166 240.637 25.0354 240.637 28.2404C240.637 31.3633 243.102 33.5821 246.471 33.5821ZM263.213 81H272.664V52.8123C276.033 49.5251 278.334 47.7993 281.868 47.7993C286.305 47.7993 288.196 50.2647 288.196 56.9213V81H297.646V55.6886C297.646 45.4982 293.866 39.6635 285.237 39.6635C279.731 39.6635 275.622 42.5398 272.006 46.0735H271.677L271.02 40.6496H263.213V81ZM323.416 81.9862C326.621 81.9862 329.415 81.2465 331.634 80.5069L329.99 73.5216C328.839 74.0147 327.196 74.4256 325.799 74.4256C321.936 74.4256 320.128 72.1246 320.128 67.3581V48.128H330.401V40.6496H320.128V29.6375H312.239L311.089 40.6496L304.843 41.0605V48.128H310.595V67.3581C310.595 76.0692 314.047 81.9862 323.416 81.9862ZM349.348 81.9862C359.539 81.9862 365.045 76.3979 365.045 69.4948C365.045 61.9342 358.964 59.3045 353.457 57.25C349.102 55.6886 345.075 54.4559 345.075 51.2508C345.075 48.7033 346.965 46.8131 350.992 46.8131C354.197 46.8131 357.073 48.2102 359.868 50.2647L364.223 44.5121C360.936 41.9645 356.416 39.6635 350.828 39.6635C341.788 39.6635 336.117 44.6764 336.117 51.7439C336.117 58.4827 342.117 61.5233 347.458 63.4957C351.732 65.1393 356.087 66.6185 356.087 69.9879C356.087 72.782 354.033 74.8365 349.677 74.8365C345.568 74.8365 342.117 73.1107 338.501 70.3166L334.063 76.3979C338.008 79.6029 343.842 81.9862 349.348 81.9862Z" transform="translate(211 -11.3)" fill="#FEFEFE"/>
</svg>
