<svg width="156" height="156" viewBox="0 0 156 156" xmlns="http://www.w3.org/2000/svg"><title>Group</title><g transform="translate(4 4)" stroke="#0B63CE" stroke-width="7" fill="none" fill-rule="evenodd"><path fill="#E1EBFF" transform="matrix(1 0 0 -1 0 80.816)" d="M0 14.605H148V66.21H0z"/><path fill="#FFF" transform="matrix(1 0 0 -1 0 14.605)" d="M14.605 0H59.394000000000005V14.605H14.605z"/><path fill="#53E6C1" transform="matrix(1 0 0 -1 0 14.605)" d="M88.605 0H133.394V14.605H88.605z"/><path fill="#E1EBFF" transform="matrix(1 0 0 -1 0 244.395)" d="M0 96.395H148V148H0z"/><path fill="#53E6C1" transform="matrix(1 0 0 -1 0 178.184)" d="M14.605 81.789H59.394000000000005V96.394H14.605z"/><path fill="#FFF" transform="matrix(1 0 0 -1 0 178.184)" d="M88.605 81.789H133.394V96.394H88.605z"/><path d="M37 50.632H14.605M37 134.368H14.605" fill="#FFF" stroke-linecap="square"/></g></svg>