<svg height="171" viewBox="0 0 168 171" width="168" xmlns="http://www.w3.org/2000/svg"><g fill="none" fill-rule="evenodd" transform="translate(4 4)"><path d="m3 112 16 26 18-4 16 4 18-26z" fill="#fff"/><path d="m23 136 13 19 13-19z" fill="#53e6c1"/><g stroke="#0b63ce" stroke-width="8"><path d="m53.0442768 138.27835c-5.0717766-2.729579-10.8732523-4.27835-17.0364629-4.27835-5.9501267 0-11.563099 1.44353-16.5078139 3.999486" stroke-linejoin="round"/><path d="m36 160 36-48v-76c0-19.882251-16.117749-36-36-36s-36 16.117749-36 36v76z"/><path d="m88 0h72v160h-72z" fill="#e1ebff" transform="matrix(1 0 0 -1 0 160)"/><path d="m88 96h40" stroke-linecap="square"/><path d="m88 128h40" stroke-linecap="square"/><path d="m88 64h40" stroke-linecap="square"/><circle cx="132" cy="28" fill="#53e6c1" r="12" transform="matrix(1 0 0 -1 0 56)"/><path d="m24 44v64" stroke-linecap="square"/><path d="m48 44v64" stroke-linecap="square"/><path d="m0 40h72"/><path d="m0 110h72"/></g></g></svg>