<svg width="24" height="24" viewBox="2 2 22 22" fill="none" xmlns="http://www.w3.org/2000/svg"><path d="M22.237 5.674c-.7.3-1.5.5-2.4.6.8-.5 1.5-1.3 1.8-2.3-.8.5-1.7.8-2.6 1-.7-.8-1.8-1.3-3-1.3-2.3 0-4.1 1.8-4.1 4.1 0 .3 0 .6.1.9-3.4-.1-6.4-1.7-8.4-4.2-.4.6-.6 1.3-.6 2.1 0 1.4.7 2.7 1.8 3.4-.6 0-1.2-.2-1.8-.5v.1c0 2 1.4 3.6 3.3 4-.3.1-.7.1-1.1.1-.3 0-.5 0-.8-.1.5 1.6 2 2.8 3.8 2.8-1.4 1.1-3.2 1.8-5.1 1.8-.3 0-.7 0-1-.1 1.8 1.2 4 1.8 6.3 1.8 7.5 0 11.7-6.3 11.7-11.7v-.5c.9-.5 1.5-1.2 2.1-2z" fill="#fff"/></svg>