<svg width="100" height="100" viewBox="0 0 100 100" fill="none" xmlns="http://www.w3.org/2000/svg"><path d="M36 51H21.336C19.516 51 18 52.481 18 54.26v25.48C18 81.52 19.516 83 21.336 83h15.779A4.911 4.911 0 0 1 36 79.88V51zm30.885 32h15.78C84.483 83 86 81.574 86 79.863V36.137C86 34.426 84.484 33 82.664 33H68v46.88c0 1.196-.423 2.27-1.115 3.12zm-4.22-66C64.483 17 66 18.418 66 20.12v59.76c0 1.702-1.516 3.12-3.336 3.12H41.336C39.516 83 38 81.582 38 79.88V20.12c0-1.702 1.516-3.12 3.336-3.12h21.328z" fill="#09101D"/></svg>