<svg width="100" height="100" viewBox="0 0 100 100" fill="none" xmlns="http://www.w3.org/2000/svg"><path d="M42.664 51C44.484 51 46 52.481 46 54.26v25.48C46 81.52 44.484 83 42.664 83H21.336C19.516 83 18 81.518 18 79.74V54.26C18 52.48 19.516 51 21.336 51h21.328z" fill="#1AA0E8"/><path d="M82.664 33C84.484 33 86 34.426 86 36.137v43.726C86 81.574 84.484 83 82.664 83H61.336C59.516 83 58 81.574 58 79.863V36.137C58 34.426 59.516 33 61.336 33h21.328z" fill="#1AA0E8"/><path d="M62.664 17C64.484 17 66 18.418 66 20.12v59.76c0 1.702-1.516 3.12-3.336 3.12H41.336C39.516 83 38 81.582 38 79.88V20.12c0-1.702 1.516-3.12 3.336-3.12h21.328z" fill="#0B63CE"/><path d="M38.103 51.002h4.512S46 50.804 46 54.652V80.31s0 2.665-4 2.665c0 0-3.385.493-4-2.862V51.002h.103z" fill="#134194"/><path d="M61.385 33.002S58 32.812 58 36.517V80.41s0 2.566 4 2.566c0 0 3.385.475 4-2.756V33.002h-4.615z" fill="#134194"/></svg>