<svg width="600" height="200" viewBox="0 0 600 200" fill="none" xmlns="http://www.w3.org/2000/svg"><path d="M42.452 90.62c1.128 0 2.068.919 2.068 2.02v15.8c0 1.102-.94 2.02-2.068 2.02H29.228c-1.128 0-2.068-.918-2.068-2.02v-15.8c0-1.101.94-2.02 2.068-2.02h13.224z" fill="#1AA0E8"/><path d="M67.252 79.46c1.128 0 2.068.884 2.068 1.945v27.11c0 1.061-.94 1.945-2.068 1.945H54.028c-1.128 0-2.068-.884-2.068-1.945v-27.11c0-1.061.94-1.945 2.068-1.945h13.224z" fill="#1AA0E8"/><path d="M54.852 69.54c1.128 0 2.068.88 2.068 1.935v37.05c0 1.056-.94 1.935-2.068 1.935H41.628c-1.128 0-2.068-.88-2.068-1.935v-37.05c0-1.056.94-1.935 2.068-1.935h13.224z" fill="#0B63CE"/><path d="M39.623 90.621h2.798s2.099-.122 2.099 2.264v15.907s0 1.652-2.48 1.652c0 0-2.099.306-2.48-1.774V90.62h.063z" fill="#134194"/><path d="M54.058 79.461s-2.098-.118-2.098 2.18v27.213s0 1.59 2.48 1.59c0 0 2.098.295 2.48-1.707V79.46h-2.862z" fill="#134194"/><path d="M105.434 38.264h-9.542V18.536c0-.12-.08-.2-.201-.2H94.2c-.12 0-.201.08-.201.2v21.177c0 .12.08.201.201.201h11.233c.12 0 .201-.08.201-.201v-1.288c0-.08-.08-.161-.201-.161z" fill="#101820"/><path d="M119.565 24.092h-3.382v-3.14c0-2.214.725-3.301 2.215-3.301.604 0 1.208.16 1.771.402.04.04.12.04.161 0l.121-.12.403-1.168c.04-.08 0-.201-.121-.242-.765-.322-1.61-.523-2.335-.523-2.577 0-4.026 1.731-4.026 4.831v3.261l-1.933.121c-.12 0-.201.08-.201.201v1.087c0 .121.08.202.201.202h1.933v14.01c0 .12.08.201.201.201h1.41c.12 0 .2-.08.2-.201v-14.01h3.382c.121 0 .202-.08.202-.202v-1.248c0-.08-.08-.16-.202-.16z" fill="#101820"/><path d="M126.893 23.69c-3.342 0-6.925 2.939-6.925 8.333 0 4.872 3.02 8.294 7.327 8.294 2.295 0 3.704-.765 4.992-1.53.081-.04.121-.161.081-.282l-.604-1.087c-.04-.04-.08-.08-.12-.08-.04 0-.122 0-.162.04-1.288.926-2.576 1.328-4.026 1.328-3.26 0-5.475-2.536-5.596-6.28h10.91c.081 0 .162-.08.202-.161.08-.403.08-.846.08-1.208-.08-4.63-2.335-7.367-6.16-7.367zm-5.073 7.126c.362-3.261 2.416-5.516 5.073-5.516 2.778 0 4.308 1.973 4.348 5.516h-9.421z" fill="#101820"/><path d="M143.278 24.052c-.483-.242-.966-.322-1.61-.322-1.61 0-3.14 1.006-4.308 2.899l-.12-2.335c0-.121-.081-.202-.202-.202h-1.208c-.12 0-.201.08-.201.202v15.46c0 .12.08.2.201.2h1.41c.12 0 .2-.08.2-.2V29.285c.967-2.416 2.457-3.825 4.027-3.825.563 0 .805.08 1.328.242h.161c.04-.04.08-.08.08-.121l.323-1.288c.04-.121 0-.202-.08-.242z" fill="#101820"/><path d="M156 24.092h-1.248c-.12 0-.201.08-.201.202l-.08 1.167c-1.33-1.047-2.618-1.731-4.47-1.731-4.106 0-7.045 3.502-7.045 8.334 0 5.193 2.456 8.293 6.603 8.293 1.69 0 3.381-.765 4.951-2.214l.121 1.65c0 .121.08.202.202.202h1.207c.121 0 .202-.08.202-.201v-15.5c-.04-.121-.121-.202-.242-.202zm-1.61 3.14v8.978c-1.65 1.691-3.1 2.416-4.63 2.416-3.06 0-4.912-2.496-4.912-6.643 0-3.744 2.295-6.683 5.234-6.683 1.53.04 2.818.604 4.308 1.933z" fill="#101820"/><path d="M171.38 24.173c-.04-.04-.081-.08-.162-.08h-1.449c-.08 0-.161.04-.201.12l-3.302 9.703c-.16.523-.362 1.087-.523 1.65-.241.805-.523 1.61-.765 2.335-.322-.805-.644-1.69-.966-2.536-.201-.524-.403-1.007-.564-1.49l-3.704-9.702a.221.221 0 0 0-.2-.121h-1.53c-.081 0-.122.04-.162.08-.04.04-.04.121 0 .202l6.321 15.66-.403 1.29c-.604 1.81-1.73 3.944-3.784 3.944-.403 0-.886-.12-1.208-.241h-.16l-.122.12-.322 1.249c-.04.08.04.201.121.241.443.202 1.087.322 1.65.322 2.376 0 4.228-1.811 5.396-5.233l6.079-17.393c.04 0 0-.08-.04-.12z" fill="#101820"/><path d="M109.46 20.59a.447.447 0 0 0 .443-.443v-1.45a.447.447 0 0 0-.443-.442h-1.45a.447.447 0 0 0-.442.442v1.45c0 .241.201.443.443.443h1.45zm-1.45 3.502h1.41c.12 0 .201.08.201.201v15.46c0 .121-.08.201-.201.201h-1.41c-.12 0-.2-.08-.2-.2v-15.46c0-.121.08-.202.2-.202z" fill="#101820"/><path d="M115.605 99.178h-14.481l-3.357 11.726H90l14.02-43.326h8.952l14.02 43.326h-8.045l-3.342-11.726zm-1.712-6.028l-1.514-5.3a177.78 177.78 0 0 1-2.004-7.089c-.633-2.429-1.26-4.846-1.88-7.25h-.262c-.615 2.454-1.23 4.873-1.843 7.258a173.44 173.44 0 0 1-1.975 7.051l-1.514 5.3 10.992.03z" fill="#09101D"/><path d="M131.27 78.376h6.253l.527 4.373h.263a25.67 25.67 0 0 1 4.71-3.68 11.199 11.199 0 0 1 5.887-1.524c3.467 0 5.99 1.116 7.57 3.349s2.37 5.422 2.37 9.57v20.44h-7.57v-19.41c0-2.694-.395-4.594-1.185-5.698s-2.084-1.656-3.883-1.656a6.762 6.762 0 0 0-3.716 1.03 23.713 23.713 0 0 0-3.657 3.011v22.723h-7.569V78.376z" fill="#09101D"/><path d="M164.312 102.16a9.056 9.056 0 0 1 1.153-4.684 8.98 8.98 0 0 1 3.389-3.413c3.028-1.9 7.855-3.224 14.48-3.975a8.783 8.783 0 0 0-.328-2.415 5.991 5.991 0 0 0-1.017-2.053 4.648 4.648 0 0 0-1.777-1.392 6.588 6.588 0 0 0-2.735-.5 12.312 12.312 0 0 0-4.703.927 28.35 28.35 0 0 0-4.388 2.253l-2.765-5.101a32.685 32.685 0 0 1 6.027-2.982 20.17 20.17 0 0 1 7.203-1.244c4.081 0 7.11 1.205 9.084 3.615 1.974 2.41 2.95 5.886 2.925 10.43v19.278h-6.158l-.592-3.577h-.198a23.71 23.71 0 0 1-4.636 3.114 11.64 11.64 0 0 1-5.368 1.258 9.452 9.452 0 0 1-3.734-.598 9.497 9.497 0 0 1-3.207-2.015 9.252 9.252 0 0 1-2.048-3.183 9.3 9.3 0 0 1-.607-3.743zm7.372-.597a3.783 3.783 0 0 0 1.287 3.18 5.263 5.263 0 0 0 3.32.994 7.278 7.278 0 0 0 3.621-.927 17.086 17.086 0 0 0 3.423-2.65v-7.302a34.35 34.35 0 0 0-5.53 1.06c-1.251.335-2.456.83-3.583 1.472a5.355 5.355 0 0 0-1.945 1.884 4.55 4.55 0 0 0-.593 2.29z" fill="#09101D"/><path d="M197.684 64.133h7.57v38.821c-.07.696.118 1.393.526 1.959a1.53 1.53 0 0 0 1.119.559h.475a2.76 2.76 0 0 0 .688-.132l.987 5.697c-1.28.489-2.646.714-4.015.662-2.72 0-4.63-.817-5.726-2.45-1.097-1.635-1.646-3.865-1.646-6.692l.022-38.424z" fill="#09101D"/><path d="M213.847 117.963a4.71 4.71 0 0 0 1.214.162 5.533 5.533 0 0 0 4.117-1.553 9.877 9.877 0 0 0 2.333-4.011l.593-2.054-12.704-32.13h7.701l5.632 15.965c.487 1.414.96 2.905 1.418 4.476.459 1.57.93 3.126 1.412 4.667h.263c.395-1.502.802-3.036 1.222-4.601.419-1.565.823-3.08 1.213-4.542l4.871-15.965h7.314l-11.702 33.985a35.018 35.018 0 0 1-2.194 4.968 16.263 16.263 0 0 1-2.728 3.747 10.738 10.738 0 0 1-3.554 2.385c-1.48.577-3.058.857-4.644.824a14.122 14.122 0 0 1-2.304-.161c-.65-.11-1.289-.277-1.909-.501l1.382-5.962 1.054.301z" fill="#09101D"/><path d="M246.919 84.405h-4.608v-5.697l5.002-.332.922-8.877h6.319v8.877h8.228v6.029h-8.228v15.502c0 3.798 1.514 5.698 4.542 5.698a7.996 7.996 0 0 0 1.747-.2 8.102 8.102 0 0 0 1.61-.53l1.316 5.632c-.98.339-1.978.617-2.991.832-1.181.248-2.385.368-3.591.36a11.737 11.737 0 0 1-4.769-.86 8.087 8.087 0 0 1-3.16-2.415 10.038 10.038 0 0 1-1.776-3.68 19.13 19.13 0 0 1-.563-4.807V84.405z" fill="#09101D"/><path d="M273.196 72.68a4.808 4.808 0 0 1-3.357-1.193 3.99 3.99 0 0 1-1.316-3.114 4.109 4.109 0 0 1 1.316-3.143 5.202 5.202 0 0 1 3.357-1.23c1.228 0 2.416.435 3.357 1.23a4.085 4.085 0 0 1 1.316 3.143 4.012 4.012 0 0 1-1.316 3.114 4.808 4.808 0 0 1-3.357 1.192zm-3.818 5.696h7.57v32.528h-7.584l.014-32.528z" fill="#09101D"/><path d="M283.186 94.674a18.737 18.737 0 0 1 1.316-7.221 15.885 15.885 0 0 1 3.554-5.367 15.398 15.398 0 0 1 5.171-3.341 16.529 16.529 0 0 1 6.15-1.163 12.837 12.837 0 0 1 5.493 1.082 14.541 14.541 0 0 1 3.986 2.679l-3.62 4.836a12.118 12.118 0 0 0-2.633-1.752 6.482 6.482 0 0 0-2.83-.633 7.863 7.863 0 0 0-3.535.72 7.912 7.912 0 0 0-2.85 2.225c-1.624 1.962-2.435 4.6-2.435 7.912 0 3.313.8 5.93 2.398 7.855a7.687 7.687 0 0 0 2.766 2.212 7.637 7.637 0 0 0 3.458.732 8.103 8.103 0 0 0 3.657-.825 14.375 14.375 0 0 0 2.998-1.957l3.16 4.836a16.392 16.392 0 0 1-5.068 3.113 15.352 15.352 0 0 1-5.53 1.06 16.618 16.618 0 0 1-6.15-1.126 13.89 13.89 0 0 1-4.973-3.312 15.334 15.334 0 0 1-3.291-5.366 20.583 20.583 0 0 1-1.192-7.2z" fill="#09101D"/><path d="M314.715 102.292a20.531 20.531 0 0 0 4.308 2.687c1.463.647 3.046.973 4.644.957 1.755 0 3.05-.363 3.883-1.09a3.582 3.582 0 0 0 1.25-2.82 2.772 2.772 0 0 0-.592-1.75 5.71 5.71 0 0 0-1.58-1.363 15.155 15.155 0 0 0-2.237-1.111 119.38 119.38 0 0 1-2.502-1.03 39.439 39.439 0 0 1-3.225-1.392 12.982 12.982 0 0 1-2.925-1.921 9.66 9.66 0 0 1-2.107-2.613 7.237 7.237 0 0 1-.819-3.548 8.882 8.882 0 0 1 .779-3.876 8.827 8.827 0 0 1 2.38-3.146c2.107-1.811 4.981-2.717 8.623-2.717a14.83 14.83 0 0 1 6.056 1.193c1.66.714 3.23 1.626 4.673 2.716l-3.488 4.637a18.027 18.027 0 0 0-3.46-2.016 9.019 9.019 0 0 0-3.656-.737 5.292 5.292 0 0 0-3.591 1.031 3.26 3.26 0 0 0-1.126 2.54 2.617 2.617 0 0 0 .555 1.693 5.2 5.2 0 0 0 1.463 1.221c.685.387 1.399.72 2.136.994.811.31 1.66.618 2.537.928 1.097.397 2.194.851 3.291 1.361a13.465 13.465 0 0 1 2.992 1.885 8.617 8.617 0 0 1 2.194 2.753 8.465 8.465 0 0 1 .826 3.872 9.482 9.482 0 0 1-.826 3.945 9.087 9.087 0 0 1-2.4 3.18 11.68 11.68 0 0 1-3.948 2.15 16.93 16.93 0 0 1-5.398.794 17.825 17.825 0 0 1-6.582-1.288 21.35 21.35 0 0 1-5.624-3.216l3.496-4.903z" fill="#09101D"/><path d="M93.357 160.774a27.395 27.395 0 0 1 1.55-9.503 21.02 21.02 0 0 1 4.228-7.096 18.077 18.077 0 0 1 6.318-4.416 19.818 19.818 0 0 1 7.767-1.524c2.46-.041 4.891.528 7.08 1.656a19.39 19.39 0 0 1 5.163 3.843l-4.278 4.77a13.903 13.903 0 0 0-3.518-2.614 9.493 9.493 0 0 0-4.388-.964 10.911 10.911 0 0 0-4.9 1.097 11.233 11.233 0 0 0-3.818 3.114 14.66 14.66 0 0 0-2.5 4.931 22.46 22.46 0 0 0-.893 6.559c0 4.947 1.065 8.823 3.196 11.63a10.32 10.32 0 0 0 3.823 3.154 10.25 10.25 0 0 0 4.843.998 10.68 10.68 0 0 0 5.04-1.126 14.358 14.358 0 0 0 3.978-3.18l4.278 4.703a18.591 18.591 0 0 1-5.99 4.674 16.861 16.861 0 0 1-7.437 1.62c-2.638.02-5.254-.48-7.702-1.472a17.236 17.236 0 0 1-6.187-4.306 20.49 20.49 0 0 1-4.146-7.023 27.877 27.877 0 0 1-1.507-9.525z" fill="#09101D"/><path d="M131.533 135.534h7.57v38.821c-.07.696.118 1.393.526 1.958a1.53 1.53 0 0 0 1.119.56h.497a2.76 2.76 0 0 0 .688-.133l.987 5.698c-1.28.489-2.646.714-4.015.662-2.72 0-4.63-.817-5.726-2.451-1.097-1.634-1.646-3.864-1.646-6.691v-38.424z" fill="#09101D"/><path d="M145.94 166.074a19.605 19.605 0 0 1 1.251-7.22 15.869 15.869 0 0 1 3.394-5.367 14.93 14.93 0 0 1 4.904-3.343 14.85 14.85 0 0 1 5.81-1.162 15.09 15.09 0 0 1 5.85 1.163 14.366 14.366 0 0 1 4.9 3.342 16.568 16.568 0 0 1 3.394 5.366 21.01 21.01 0 0 1 0 14.442 16.569 16.569 0 0 1-3.393 5.366 13.985 13.985 0 0 1-4.9 3.313 15.474 15.474 0 0 1-5.851 1.126 15.206 15.206 0 0 1-5.792-1.126 14.396 14.396 0 0 1-4.9-3.313 15.869 15.869 0 0 1-3.394-5.366 19.605 19.605 0 0 1-1.272-7.22zm7.768 0c0 3.268.67 5.886 2.01 7.854a6.387 6.387 0 0 0 2.394 2.21c.974.516 2.065.769 3.165.735a6.424 6.424 0 0 0 3.18-.737 6.473 6.473 0 0 0 2.415-2.208c1.36-1.963 2.04-4.58 2.04-7.854 0-3.273-.677-5.91-2.033-7.913a6.48 6.48 0 0 0-2.416-2.206 6.431 6.431 0 0 0-3.179-.738c-1.1-.034-2.19.22-3.164.735a6.393 6.393 0 0 0-2.394 2.21c-1.336 1.962-2.006 4.6-2.011 7.912h-.007z" fill="#09101D"/><path d="M182.545 149.777h7.57v19.425c0 2.695.394 4.594 1.184 5.698.79 1.104 2.063 1.656 3.818 1.656a6.646 6.646 0 0 0 3.722-1.06 15.245 15.245 0 0 0 3.452-3.445v-22.274h7.57v32.528h-6.187l-.593-4.77h-.197a19.054 19.054 0 0 1-4.571 4.041 10.914 10.914 0 0 1-5.851 1.524c-3.467 0-5.99-1.114-7.57-3.342-1.58-2.228-2.369-5.418-2.369-9.57l.022-20.411z" fill="#09101D"/><path d="M216.151 166.075a20.902 20.902 0 0 1 1.156-7.155 16.707 16.707 0 0 1 3.057-5.366 13.7 13.7 0 0 1 4.388-3.379 11.581 11.581 0 0 1 5.12-1.192 10.313 10.313 0 0 1 4.672.964 18.681 18.681 0 0 1 3.818 2.613l-.263-5.233v-11.778h7.57v46.757h-6.254l-.526-3.512h-.264a17.115 17.115 0 0 1-4.146 3.048 10.514 10.514 0 0 1-5.003 1.259c-1.846.068-3.683-.3-5.362-1.077a11.823 11.823 0 0 1-4.306-3.392c-2.438-2.978-3.657-7.164-3.657-12.557zm7.833-.066c0 3.533.626 6.217 1.88 8.052a6.184 6.184 0 0 0 2.354 2.091c.95.481 2.01.707 3.072.655 2.438 0 4.698-1.227 6.78-3.68v-15.135a10.684 10.684 0 0 0-3.32-2.12 9.35 9.35 0 0 0-3.262-.596 6.55 6.55 0 0 0-3 .744 6.596 6.596 0 0 0-2.332 2.039c-1.429 1.855-2.143 4.505-2.143 7.95h-.03z" fill="#09101D"/></svg>